<svg xmlns="http://www.w3.org/2000/svg" xmlns:xlink="http://www.w3.org/1999/xlink" width="80" height="80" viewBox="0 0 80 80">
    <defs>
        <path id="a" d="M0 0h100v80H0z"/>
    </defs>
    <g fill="none" fill-rule="evenodd" transform="translate(-10)">
        <mask id="b" fill="#fff">
            <use xlink:href="#a"/>
        </mask>
        <g mask="url(#b)">
            <path fill="#5078FA" d="M33 35h3v6h-3zM53 35h3v6h-3zM53 21.211h3v6h-3zM33 49h3v6h-3zM52.953 49h3v6h-3zM40 35h3v6h-3zM60 35h3v6h-3zM72 36h3v6h-3zM72 50h3v6h-3zM72 64h3v6h-3zM59 64h3v6h-3zM60 21.211h3v6h-3zM40 49h3v6h-3zM59.953 49h3v6h-3z"/>
            <path fill="#464646" fill-rule="nonzero" d="M59.317 41.957h3.388c.635 0 1.059-.425 1.059-1.063v-5.526c0-.637-.424-1.062-1.059-1.062h-3.388c-.635 0-1.059.425-1.059 1.062v5.526c0 .638.424 1.063 1.059 1.063zm1.059-5.526h1.27v3.4h-1.27v-3.4zM52.012 41.957H55.4c.635 0 1.058-.425 1.058-1.063v-5.526c0-.637-.423-1.062-1.058-1.062h-3.388c-.636 0-1.06.425-1.06 1.062v5.526c0 .638.53 1.063 1.06 1.063zm1.058-5.526h1.27v3.4h-1.27v-3.4zM39.942 41.957h3.388c.635 0 1.059-.425 1.059-1.063v-5.526c0-.637-.424-1.062-1.06-1.062h-3.387c-.635 0-1.059.425-1.059 1.062v5.526c0 .638.53 1.063 1.059 1.063zM41 36.43h1.27v3.4h-1.27v-3.4zM32.742 41.957h3.388c.636 0 1.06-.425 1.06-1.063v-5.526c0-.637-.424-1.062-1.06-1.062h-3.388c-.635 0-1.058.425-1.058 1.062v5.526c0 .638.423 1.063 1.058 1.063zm1.06-5.526h1.27v3.4h-1.27v-3.4zM59.317 56.196h3.388c.635 0 1.059-.425 1.059-1.062v-5.526c0-.638-.424-1.063-1.059-1.063h-3.388c-.635 0-1.059.425-1.059 1.063v5.526c0 .637.424 1.062 1.059 1.062zm1.059-5.525h1.27v3.4h-1.27v-3.4zM59.317 71.286h3.388c.635 0 1.059-.425 1.059-1.062v-5.207c0-.638-.424-1.063-1.059-1.063h-3.388c-.635 0-1.059.425-1.059 1.063v5.207c0 .53.424 1.062 1.059 1.062zm1.059-5.207h1.27v3.082h-1.27v-3.082zM52.012 56.196H55.4c.635 0 1.058-.425 1.058-1.062v-5.526c0-.638-.423-1.063-1.058-1.063h-3.388c-.636 0-1.06.425-1.06 1.063v5.526c0 .637.53 1.062 1.06 1.062zm1.058-5.525h1.27v3.4h-1.27v-3.4zM39.942 56.196h3.388c.635 0 1.059-.425 1.059-1.062v-5.526c0-.638-.424-1.063-1.06-1.063h-3.387c-.635 0-1.059.425-1.059 1.063v5.526c0 .637.53 1.062 1.059 1.062zM41 50.671h1.27v3.4h-1.27v-3.4zM36.024 56.196c.636 0 1.06-.425 1.06-1.062v-5.526c0-.638-.424-1.063-1.06-1.063h-3.388c-.635 0-1.058.425-1.058 1.063v5.526c0 .637.423 1.062 1.058 1.062h3.388zm-2.223-5.525h1.27v3.4h-1.27v-3.4zM59.317 28.036h3.388c.635 0 1.059-.425 1.059-1.063v-5.525c0-.638-.424-1.063-1.059-1.063h-3.388c-.635 0-1.059.425-1.059 1.063v5.525c0 .532.424 1.063 1.059 1.063zm1.059-5.526h1.27v3.4h-1.27v-3.4zM52.012 28.036H55.4c.635 0 1.058-.425 1.058-1.063v-5.525c0-.638-.423-1.063-1.058-1.063h-3.388c-.636 0-1.06.425-1.06 1.063v5.525c0 .532.53 1.063 1.06 1.063zm1.058-5.526h1.27v3.4h-1.27v-3.4z"/>
            <path fill="#464646" fill-rule="nonzero" d="M11.25 79.044h77.606c.635 0 1.059-.425 1.059-1.063 0-.638-.424-1.063-1.059-1.063h-7.835V31.33h.212c.635 0 1.059-.425 1.059-1.062v-5.42c0-.637-.424-1.063-1.059-1.063H68.74v-9.882c.53-.107.847-.532.847-1.063V6.677c0-.532-.424-.957-.847-1.063V1.151c0-.638-.424-1.063-1.059-1.063H46.824c-.636 0-1.059.425-1.059 1.063v4.463c-.53.106-.847.531-.847 1.063v6.163c0 .531.423.956.847 1.063v1.806H29.037c-.636 0-1.059.425-1.059 1.063v3.825h-.106c-.635 0-1.059.426-1.059 1.063v6.164c0 .637.424 1.062 1.06 1.062h.105v47.926H19.72v-3.4c2.54-.532 4.446-2.763 4.446-5.42a5.55 5.55 0 0 0-2.54-4.676c.74-.744 1.164-1.806 1.164-2.869a4.142 4.142 0 0 0-4.129-4.144c-2.223 0-4.13 1.913-4.13 4.144 0 1.169.424 2.125 1.165 2.87-1.588.956-2.54 2.762-2.54 4.675 0 2.657 1.905 4.994 4.446 5.42v3.4H11.25c-.636 0-1.059.425-1.059 1.063 0 .637.53 1.169 1.059 1.169zm5.4-18.597c0-1.169.952-2.019 2.011-2.019 1.165 0 2.012.956 2.012 2.02a2.014 2.014 0 0 1-2.012 2.018 2.014 2.014 0 0 1-2.012-2.019zm-1.377 7.651c0-1.913 1.482-3.4 3.388-3.4s3.388 1.594 3.388 3.4c0 1.807-1.482 3.4-3.388 3.4s-3.388-1.487-3.388-3.4zm24.351 8.82h-3.282V66.08h3.282v10.84zM28.931 26.973v-4.038h16.834v4.038H28.931zM67.469 7.846v4.038H47.035V7.846H67.47zm-19.587 6.163h18.635v62.91h-9.953V65.016c0-.638-.423-1.063-1.058-1.063h-5.4c-.635 0-1.059.425-1.059 1.063v11.901h-1.27V14.01h.105zm6.67 62.91h-3.281v-10.84h3.282v10.84zm24.352 0H68.74V31.33h10.164v45.588zm1.27-50.902v3.294H68.74v-3.294h11.434zM66.622 2.32v3.4h-18.74v-3.4h18.74zM30.095 17.94h15.67v2.764h-15.67V17.94zm0 11.159h15.67v47.926h-4.023V65.017c0-.638-.424-1.063-1.059-1.063h-5.4c-.635 0-1.058.425-1.058 1.063v11.901h-4.13v-47.82z"/>
            <path fill="#464646" fill-rule="nonzero" d="M72.022 43.126h3.388c.635 0 1.059-.425 1.059-1.063v-5.42c0-.637-.424-1.062-1.059-1.062h-3.388c-.635 0-1.059.425-1.059 1.063v5.42c0 .637.424 1.062 1.059 1.062zm1.059-5.42h1.27v3.295h-1.27v-3.295zM72.022 57.26h3.388c.635 0 1.059-.426 1.059-1.064v-5.42c0-.637-.424-1.062-1.059-1.062h-3.388c-.635 0-1.059.425-1.059 1.063v5.42c0 .53.424 1.062 1.059 1.062zm1.059-5.527h1.27v3.295h-1.27v-3.295zM72.022 71.499h3.388c.635 0 1.059-.425 1.059-1.063v-5.42c0-.637-.424-1.062-1.059-1.062h-3.388c-.635 0-1.059.425-1.059 1.063v5.42c0 .637.424 1.062 1.059 1.062zm1.059-5.42h1.27v3.294h-1.27V66.08z"/>
        </g>
    </g>
</svg>
