<svg xmlns="http://www.w3.org/2000/svg" xmlns:xlink="http://www.w3.org/1999/xlink" width="79" height="80" viewBox="0 0 79 80">
    <defs>
        <path id="a" d="M0 0h100v80H0z"/>
    </defs>
    <g fill="none" fill-rule="evenodd" transform="translate(-10)">
        <mask id="b" fill="#fff">
            <use xlink:href="#a"/>
        </mask>
        <g mask="url(#b)">
            <path fill="#5078FA" d="M20.51 13.513L21.79 1.816l16.596 3.52L74.56 3.819l.523 10.04z"/>
            <path fill="#464646" fill-rule="nonzero" d="M40.634 46.244h.976c6.341 0 11.707-4.878 12.195-11.317.293-3.22-.78-6.44-2.927-8.976-2.146-2.536-5.073-4-8.39-4.292-6.732-.586-12.683 4.487-13.17 11.219-.391 6.927 4.584 12.78 11.316 13.366zM31.366 33.17c.488-5.659 5.463-9.951 11.122-9.464 5.658.488 9.951 5.464 9.463 11.122-.488 5.659-5.463 9.951-11.122 9.464-5.658-.488-9.951-5.464-9.463-11.122z"/>
            <path fill="#464646" fill-rule="nonzero" d="M37.512 39.61l-.195.488c-.293.487-.097 1.073.39 1.365.195.098.293.098.488.098.39 0 .683-.195.878-.488l.195-.39c.39.097.683.195 1.073.195.39 0 .781-.098 1.171-.195a3.856 3.856 0 0 0 2.342-1.951c.487-.976.585-2.05.292-3.025-.195-.78-.683-1.366-1.268-1.853l1.854-3.415c.39.585.488 1.366.097 2.049-.292.488-.097 1.073.39 1.366.488.292 1.074.097 1.366-.39.878-1.66.488-3.61-.878-4.781l.195-.39c.293-.488.098-1.073-.39-1.366-.488-.293-1.073-.098-1.366.39l-.195.39a4.008 4.008 0 0 0-2.146 0 3.856 3.856 0 0 0-2.342 1.952c-.878 1.658-.487 3.61.878 4.78l-1.853 3.415c-.098-.098-.098-.293-.195-.39-.195-.488-.098-1.074.195-1.562.292-.487.097-1.073-.39-1.365-.488-.293-1.074-.098-1.366.39-.488.975-.586 2.049-.293 3.024.195.683.585 1.269 1.073 1.659zm4.683-3.415c.195.488.098 1.073-.195 1.561-.293.488-.683.878-1.17.976-.196.097-.489.097-.684.097l1.756-3.22c.098.098.293.391.293.586zm-.975-5.756c.292-.488.682-.878 1.17-.976.195-.097.39-.097.586-.097l-1.659 3.122c-.39-.586-.488-1.366-.097-2.049z"/>
            <path fill="#464646" fill-rule="nonzero" d="M21.415 79.512h.975c2.927 0 5.659-.975 7.903-2.927a12.388 12.388 0 0 0 4-6.634h44.78c3.025 0 5.561-2.439 5.561-5.56V50.145h.683c1.756 0 3.122-1.366 3.122-3.122V36.195c0-1.756-1.366-3.122-3.122-3.122h-.683V18.732c0-3.025-2.439-5.561-5.56-5.561h-1.952l-.976-.195-.195-9.659c0-.293-.097-.488-.292-.683-.196-.195-.39-.293-.683-.293L36.634 3.707 21.414.195a.759.759 0 0 0-.78.195c-.195.195-.39.39-.39.683l-1.366 12.195c-2.634.39-4.683 2.732-4.683 5.464v39.414c-2.341 2.147-3.805 4.976-4.097 8.195-.488 6.732 4.585 12.683 11.317 13.171zm65.17-43.317v10.83c0 .682-.487 1.17-1.17 1.17H60.829c-.683 0-1.17-.488-1.17-1.17v-10.83c0-.683.487-1.17 1.17-1.17h24.586c.683 0 1.17.487 1.17 1.17zM74.195 4.39l.195 8.195L44.05 5.561l30.146-1.17zM22.098 2.341L36.244 5.66l32.39 7.512H20.83l1.269-10.83zm-2.342 12.781h59.415c1.951 0 3.61 1.658 3.61 3.61v14.341H60.828c-1.756 0-3.122 1.366-3.122 3.122v10.83c0 1.755 1.366 3.121 3.122 3.121H82.78v14.342c0 1.951-1.658 3.61-3.61 3.61H34.586c.195-3.22-.78-6.244-2.926-8.683-2.147-2.537-5.074-4-8.39-4.293a12.367 12.367 0 0 0-7.22 1.658V18.732c.097-1.952 1.756-3.61 3.707-3.61zM12.05 66.439c.488-5.659 5.463-9.951 11.122-9.463 2.731.195 5.268 1.463 7.024 3.61 1.756 2.146 2.634 4.78 2.44 7.512-.196 2.731-1.464 5.268-3.61 7.024-2.05 1.756-4.781 2.634-7.513 2.439-5.658-.39-9.853-5.366-9.463-11.122z"/>
            <path fill="#464646" fill-rule="nonzero" d="M17.317 66.732c.488.975 1.366 1.56 2.342 1.853a4.008 4.008 0 0 0 2.146 0L23.659 72c-.098 0-.293 0-.39-.098-.489-.195-.976-.487-1.171-.975-.293-.488-.878-.683-1.366-.39-.488.292-.683.878-.39 1.365.487.976 1.365 1.561 2.34 1.854.391.098.781.195 1.074.195.293 0 .585 0 .878-.097l.195.39c.195.293.488.488.878.488.195 0 .293 0 .488-.098.488-.293.683-.878.39-1.366l-.195-.39c.586-.488.976-1.17 1.171-1.854.293-.975.195-2.146-.39-3.024-.878-1.659-2.83-2.439-4.586-1.854l-1.853-3.414c.683 0 1.463.39 1.756 1.073.292.488.878.683 1.366.39.487-.293.683-.878.39-1.366-.878-1.658-2.732-2.341-4.488-1.951l-.195-.39c-.293-.488-.878-.683-1.366-.39-.488.292-.683.878-.39 1.365l.195.39c-1.17 1.269-1.561 3.22-.683 4.879zm8.293 2.244c.292.487.292 1.073.195 1.56-.098.196-.195.488-.293.684L23.756 68c.78-.098 1.464.293 1.854.976zm-4.78-2.147c-.684 0-1.464-.39-1.757-1.073-.39-.683-.293-1.463.098-2.049l1.658 3.122zM66.488 37.854a3.706 3.706 0 0 0-3.708 3.707 3.706 3.706 0 0 0 3.708 3.707 3.706 3.706 0 0 0 3.707-3.707 3.706 3.706 0 0 0-3.707-3.707zm0 5.463c-.976 0-1.756-.78-1.756-1.756s.78-1.756 1.756-1.756c.975 0 1.756.78 1.756 1.756s-.78 1.756-1.756 1.756z"/>
        </g>
    </g>
</svg>
