<svg xmlns="http://www.w3.org/2000/svg" xmlns:xlink="http://www.w3.org/1999/xlink" width="79" height="80" viewBox="0 0 79 80">
    <defs>
        <path id="a" d="M0 0h100v80H0z"/>
    </defs>
    <g fill="none" fill-rule="evenodd" transform="translate(-11)">
        <mask id="b" fill="#fff">
            <use xlink:href="#a"/>
        </mask>
        <g mask="url(#b)">
            <path fill="#5078FA" d="M15 31c3.386-1.227 5.72-1.82 7-1.778 1.922.061 3.298 2.28 4.5 2.151 2.414-.26 4.073-.978 4.977-2.151L38 31v29H15V31zM63 31.78c3.251-1.607 5.518-2.39 6.799-2.348 1.921.061 3.5 2.851 4.701 2.722 2.414-.26 3.96-1.259 4.638-2.994L86 31.78v29H63v-29z"/>
            <path fill="#464646" fill-rule="nonzero" d="M57 49.405c-.627 0-1.045.419-1.045 1.047v4.082c0 .628.418 1.047 1.045 1.047s1.045-.42 1.045-1.047v-4.082c0-.524-.418-1.047-1.045-1.047z"/>
            <path fill="#464646" fill-rule="nonzero" d="M87.925 6.804V1.047C87.925.419 87.507 0 86.881 0H14.164c-.627 0-1.045.419-1.045 1.047v5.547L11.134 25.96v.209c0 1.78.732 3.35 1.985 4.396V78.61c0 .627.418 1.046 1.045 1.046h72.403c.627 0 1.045-.419 1.045-1.047V30.878c1.358-1.047 2.194-2.721 2.194-4.605v-.105l-1.88-19.364zM84.06 30.04c-1.776 0-3.24-1.152-3.657-2.826h7.209c-.418 1.674-1.88 2.826-3.552 2.826zm-2.717 32.03v15.595h-1.985V62.07h1.985zM77.27 77.665h-1.985V62.07h1.985v15.596zm-4.075 0h-1.985V62.07h1.985v15.596zm-4.075 0h-1.985V62.07h1.985v15.596zm-3.97 0h-1.985V62.07h1.985v15.596zM21.373 62.07v15.596h-1.88V62.07h1.88zm2.09 0h1.88v15.596h-1.88V62.07zm3.97 0h1.88v15.596h-1.88V62.07zm4.074 0h1.881v15.596h-1.88V62.07zm3.97 0h2.195v15.596h-2.194V62.07zM13.434 27.215h7.209c-.418 1.57-1.88 2.826-3.657 2.826-1.776 0-3.134-1.152-3.552-2.826zm1.776-19.47h5.433v17.376h-7.21L15.21 7.746zm72.403 17.376h-7.627V7.746h5.85l1.777 17.375zm-9.716 0h-7.523V7.746h7.523V25.12zm-26.329 0V7.746h7.523V25.12h-7.523zm-2.09 0h-7.522V7.746h7.523V25.12zm-9.611 0h-7.523V7.746h7.523V25.12zm9.507 2.094c-.418 1.57-1.88 2.826-3.657 2.826-1.776 0-3.238-1.152-3.656-2.826h7.313zm9.508 0c-.418 1.57-1.881 2.826-3.657 2.826s-3.239-1.152-3.657-2.826h7.314zm2.298-19.47h7.105v17.376h-7.105V7.746zm9.194-2.093V2.198h7.523v3.454h-7.523zm-2.09 0H61.18V2.198h7.105v3.454zm-9.193 0h-7.523V2.198h7.523v3.454zm-9.612 0h-7.523V2.198h7.523v3.454zm-9.612 0h-7.523V2.198h7.523v3.454zm-9.508 0h-7.627V2.198h7.627v3.454zm0 2.094V25.12h-7.627V7.746h7.627zm-.209 19.469c-.418 1.57-1.88 2.826-3.656 2.826-1.777 0-3.135-1.152-3.553-2.826h7.21zm9.612 0c-.418 1.57-1.88 2.826-3.657 2.826-1.776 0-3.238-1.152-3.656-2.826h7.313zm0 47.73h21.314v2.721H39.76v-2.721zm21.314-2.094H39.76V30.878c.418-.314.836-.837 1.254-1.256 1.045 1.57 2.82 2.512 4.806 2.512 1.985 0 3.761-1.047 4.806-2.512 1.045 1.57 2.82 2.512 4.806 2.512 1.985 0 3.761-1.047 4.806-2.512.313.419.627.733.94 1.047V72.85h-.104zm.209-45.636h7.209c-.418 1.57-1.881 2.826-3.657 2.826s-3.135-1.152-3.552-2.826zm16.82 0c-.417 1.57-1.88 2.826-3.656 2.826-1.776 0-3.239-1.152-3.657-2.826h7.313zm7.732-21.563H80.09V2.198h5.746v3.454zM15.209 2.198h5.328v3.454H15.21V2.198zm1.776 29.936c1.985 0 3.761-1.047 4.806-2.512 1.045 1.57 2.82 2.512 4.806 2.512 1.985 0 3.761-1.047 4.806-2.512 1.045 1.57 2.82 2.512 4.806 2.512.522 0 1.045-.105 1.463-.21v28.053H15.209V31.82c.627.21 1.15.314 1.776.314zM15.21 62.07h2.09v15.596h-2.09V62.07zm70.313 15.596h-2.194V62.07h2.194v15.596zm0-17.69H63.164V31.926c.523.21 1.15.314 1.776.314 1.985 0 3.761-1.047 4.806-2.512 1.045 1.57 2.821 2.512 4.806 2.512 1.985 0 3.761-1.047 4.806-2.512 1.045 1.57 2.821 2.512 4.806 2.512.523 0 1.045-.105 1.567-.21v27.948h-.209z"/>
        </g>
    </g>
</svg>
