<svg xmlns="http://www.w3.org/2000/svg" xmlns:xlink="http://www.w3.org/1999/xlink" width="76" height="80" viewBox="0 0 76 80">
    <defs>
        <path id="a" d="M0 0h100v80H0z"/>
    </defs>
    <g fill="none" fill-rule="evenodd" transform="translate(-12)">
        <mask id="b" fill="#fff">
            <use xlink:href="#a"/>
        </mask>
        <g mask="url(#b)">
            <path fill="#5078FA" d="M86.545 40.455c0-19.832-16.077-35.91-35.909-35.91-19.832 0-36.993 15.372-36.993 35.204 0 4.397 3.151-2.966 10.054-2.966 1.245 0 4.278 1.106 8.033 2.966 2.456 1.217 6.125-4.26 9.64-3.24.905.262 4.12 2.331 8.724 3.605 2.737.757 6.148-4.628 9.438-3.926 2.977.635 7.149 3.538 8.692 4.267 1.544.728 2.455-3.947 9.332-3.947 6.876 0 8.99 6.902 8.99 3.947z"/>
            <path fill="#464646" fill-rule="nonzero" d="M50.182 0a.91.91 0 0 0-.91.91v2.755C29.62 4.176 13.035 21.194 12.91 40.88a.91.91 0 0 0 1.648.568c1.356-1.811 4.82-4.176 8.352-4.176 3.614 0 7.048 2.312 8.352 4.147a.91.91 0 0 0 1.478 0c1.297-1.841 4.723-4.147 8.352-4.147 3.354 0 6.71 2.189 8.182 3.949v29.687c0 4.42-2.847 7.273-7.273 7.273s-7.273-2.852-7.273-7.273a.91.91 0 1 0-1.818 0C32.91 76.166 36.737 80 42 80s9.09-3.834 9.09-9.09V41.221c1.472-1.76 4.829-3.95 8.183-3.95 3.628 0 7.055 2.307 8.352 4.148a.91.91 0 0 0 1.477 0c1.305-1.835 4.738-4.147 8.353-4.147 3.532 0 6.996 2.365 8.352 4.176a.91.91 0 0 0 1.648-.568C87.33 21.194 70.745 4.176 51.09 3.665V.909A.91.91 0 0 0 50.18 0zm0 5.455c18.156 0 33.705 15.103 35.17 32.982-1.992-1.627-4.793-2.982-7.897-2.982-3.866 0-7.176 1.982-9.091 4.119-1.911-2.145-5.218-4.12-9.091-4.12-3.819 0-7.151 2.057-9.091 4.148-1.94-2.09-5.273-4.147-9.091-4.147-3.874 0-7.18 1.974-9.091 4.119-1.915-2.137-5.225-4.12-9.09-4.12-3.106 0-5.907 1.356-7.899 2.983 1.466-17.88 17.014-32.982 35.17-32.982z"/>
        </g>
    </g>
</svg>
