<svg xmlns="http://www.w3.org/2000/svg" width="102" height="49" viewBox="0 0 102 49">
    <g fill="none" fill-rule="evenodd" transform="translate(1 1)">
        <circle cx="23" cy="37" r="5" fill="#5078FA"/>
        <circle cx="84" cy="37" r="5" fill="#5078FA"/>
        <path stroke="#464646" d="M32.64 15.203a.909.909 0 0 0-.152 1 .91.91 0 0 0 .849.548h6.816V6.714l-7.513 8.49zM41.333 5.91h21.408v10.84H41.333zM93.329 16.75a.932.932 0 0 0 .931-.931V6.84a.932.932 0 0 0-.931-.93h-8.532v10.84h8.532zM63.921 5.91h19.697v10.84H63.921zM62.741 34.988H32.828c.13.543.213 1.103.248 1.676H62.74v-1.676z"/>
        <path stroke="#464646" d="M3.63 24.5c1.163 0 2.11.946 2.11 2.11v1.52c0 1.164-.947 2.11-2.11 2.11H1.179v1.862H5.15c.101 0 .2.026.289.076l2.905 1.631h5.927c.018 0 .032.01.049.01 1.391-3.663 4.928-6.279 9.073-6.279 4.141 0 7.675 2.61 9.07 6.27H62.74V17.93H33.337a2.087 2.087 0 0 1-1.925-1.244 2.088 2.088 0 0 1 .344-2.265L39.7 5.442c.158-.177.348-.315.551-.43a.58.58 0 0 1 .49-.28c.067 0 .127.017.187.037.117-.02.233-.038.352-.038h52.046c1.163 0 2.11.947 2.11 2.11v8.98c0 1.163-.947 2.11-2.11 2.11H63.92v15.878h11.217c1.394-3.658 4.928-6.269 9.069-6.269 4.14 0 7.675 2.61 9.069 6.27h.983v-1.118c0-1.163.947-2.11 2.11-2.11h2.451V18.104h-.682a2.113 2.113 0 0 1-2.11-2.11v-9.28c0-1.164.946-2.11 2.11-2.11h.682V3.8c0-1.351-1.1-2.452-2.451-2.452H39.93c-.686 0-1.343.29-1.807.795l-12.49 13.623a8.226 8.226 0 0 1-4.794 2.561l-13.71 2.104a6.955 6.955 0 0 0-5.32 4.066H3.63v.002zm90.426 5.61a.587.587 0 0 1-.83-.09c-2.216-2.759-5.504-4.34-9.02-4.34-3.515 0-6.802 1.582-9.02 4.34a.589.589 0 1 1-.919-.739c2.443-3.039 6.065-4.781 9.94-4.781 3.874 0 7.496 1.742 9.939 4.782a.589.589 0 0 1-.09.829zm-80.6-.828c2.442-3.04 6.064-4.782 9.938-4.782 3.875 0 7.497 1.742 9.94 4.782a.59.59 0 0 1-.92.739c-2.216-2.76-5.504-4.341-9.02-4.341-3.515 0-6.802 1.582-9.02 4.34a.588.588 0 1 1-.918-.738zM74.773 34.988H63.921v1.676h10.605a9.69 9.69 0 0 1 .247-1.676z"/>
        <path stroke="#464646" d="M4.561 28.13v-1.52a.932.932 0 0 0-.931-.931H1.532l-.299 3.381H3.63a.931.931 0 0 0 .931-.93z"/>
        <ellipse cx="84.207" cy="37.254" stroke="#464646" rx="3.971" ry="3.972"/>
        <path stroke="#464646" d="M96.369 31.761a.932.932 0 0 0-.931.931V34.4a.59.59 0 0 1-.59.59H93.64c.13.543.213 1.103.248 1.676h2.48c1.352 0 2.452-1.1 2.452-2.451v-2.452h-2.451v-.001zM84.207 28.72c-4.705 0-8.533 3.828-8.533 8.533 0 4.706 3.828 8.534 8.533 8.534 4.704 0 8.532-3.827 8.532-8.534 0-4.705-3.827-8.534-8.532-8.534zm0 13.685c-2.84 0-5.15-2.31-5.15-5.15a5.158 5.158 0 0 1 5.15-5.153 5.158 5.158 0 0 1 5.15 5.152 5.157 5.157 0 0 1-5.15 5.151zM13.96 34.988H8.191a.587.587 0 0 1-.289-.075L4.997 33.28H1.179v.932a2.454 2.454 0 0 0 2.451 2.451h10.082a9.798 9.798 0 0 1 .248-1.676z"/>
        <ellipse cx="23.394" cy="37.254" stroke="#464646" rx="3.971" ry="3.972"/>
        <path stroke="#464646" d="M31.927 37.254c-.001-4.706-3.828-8.534-8.533-8.534-4.704 0-8.532 3.829-8.532 8.534 0 4.706 3.828 8.534 8.532 8.534 4.705 0 8.532-3.827 8.533-8.533zm-8.533 5.151a5.157 5.157 0 0 1-5.15-5.15 5.158 5.158 0 0 1 5.15-5.153c2.84 0 5.15 2.312 5.15 5.152a5.155 5.155 0 0 1-5.15 5.151z"/>
        <path fill="#464646" fill-rule="nonzero" stroke="#464646" d="M96.37.17H39.93c-1.014 0-1.99.428-2.676 1.176L24.764 14.97a7.04 7.04 0 0 1-4.105 2.193l-13.71 2.103A8.149 8.149 0 0 0 0 27.365v6.847a3.635 3.635 0 0 0 3.63 3.631h10.082c.308 5.081 4.526 9.123 9.682 9.123 5.157 0 9.375-4.042 9.682-9.123h41.45c.307 5.081 4.525 9.123 9.68 9.123 5.156 0 9.375-4.042 9.683-9.123h2.481c2.002 0 3.63-1.629 3.63-3.631V3.8A3.635 3.635 0 0 0 96.37.17zm2.451 16.754h-.682a.932.932 0 0 1-.931-.932v-9.28c0-.513.418-.93.93-.93h.683v11.142zM7.128 20.432l13.71-2.104a8.21 8.21 0 0 0 4.794-2.561l12.49-13.624a2.453 2.453 0 0 1 1.807-.795h56.44c1.351 0 2.451 1.1 2.451 2.452v.802h-.682c-1.164 0-2.11.947-2.11 2.11v9.28c0 1.164.946 2.11 2.11 2.11h.682v12.479h-2.451c-1.163 0-2.11.947-2.11 2.11v1.117h-.983c-1.395-3.658-4.928-6.269-9.07-6.269-4.14 0-7.674 2.61-9.068 6.27H63.92V17.93H93.33c1.163 0 2.11-.946 2.11-2.11V6.842c0-1.164-.947-2.11-2.11-2.11H41.282c-.12 0-.236.017-.352.037a.576.576 0 0 0-.187-.038.58.58 0 0 0-.49.281 2.104 2.104 0 0 0-.55.43l-7.946 8.979a2.086 2.086 0 0 0-.344 2.265 2.088 2.088 0 0 0 1.925 1.244h29.404v15.88H32.464c-1.394-3.66-4.927-6.27-9.068-6.27-4.145 0-7.682 2.615-9.074 6.28-.016-.002-.032-.01-.049-.01H8.347L5.44 32.177a.587.587 0 0 0-.289-.076H1.18v-1.861H3.63c1.163 0 2.11-.947 2.11-2.11V26.61c0-1.164-.947-2.11-2.11-2.11H1.809a6.955 6.955 0 0 1 5.319-4.068zm25.7 14.556H62.74v1.676H33.076a9.583 9.583 0 0 0-.248-1.676zm31.093 0h10.852a9.674 9.674 0 0 0-.247 1.676H63.92v-1.676zM33.337 16.75a.91.91 0 0 1-.85-.549.91.91 0 0 1 .152-.999l7.513-8.49v10.037h-6.815v.001zm7.996-10.84h21.408v10.84H41.333V5.91zm22.588 0h19.697v10.84H63.92V5.91zm29.408 0c.513 0 .931.418.931.932v8.978a.932.932 0 0 1-.931.931h-8.532V5.911h8.532zM1.532 25.68H3.63c.513 0 .931.418.931.931v1.52a.932.932 0 0 1-.931.932H1.233l.3-3.383zm-.353 8.534v-.932h3.817l2.906 1.632c.09.05.188.075.29.075h5.768a9.674 9.674 0 0 0-.248 1.676H3.63a2.455 2.455 0 0 1-2.451-2.451zm22.215 11.575c-4.704 0-8.532-3.827-8.532-8.534 0-4.705 3.828-8.534 8.532-8.534 4.705 0 8.532 3.828 8.533 8.533v.004c-.001 4.704-3.828 8.531-8.533 8.531zm60.813 0c-4.705 0-8.533-3.827-8.533-8.534 0-4.705 3.828-8.534 8.533-8.534 4.704 0 8.532 3.829 8.532 8.534 0 4.706-3.827 8.534-8.532 8.534zm12.163-9.124h-2.481a9.69 9.69 0 0 0-.248-1.676h1.208a.59.59 0 0 0 .59-.59v-1.706c0-.513.418-.931.931-.931h2.451v2.452c0 1.351-1.1 2.451-2.451 2.451z"/>
        <path fill="#464646" fill-rule="nonzero" stroke="#464646" d="M84.207 24.5c-3.875 0-7.497 1.742-9.94 4.782a.59.59 0 0 0 .92.739c2.216-2.76 5.504-4.341 9.02-4.341 3.515 0 6.803 1.582 9.02 4.34a.587.587 0 0 0 .829.09.589.589 0 0 0 .09-.828c-2.443-3.04-6.065-4.782-9.94-4.782zM14.374 30.02c2.217-2.76 5.505-4.341 9.02-4.341 3.516 0 6.803 1.582 9.02 4.34a.587.587 0 0 0 .83.09.589.589 0 0 0 .09-.828c-2.443-3.04-6.065-4.783-9.94-4.783-3.874 0-7.496 1.743-9.938 4.783a.59.59 0 0 0 .918.739zM23.394 32.102a5.158 5.158 0 0 0-5.15 5.152 5.157 5.157 0 0 0 5.15 5.151c2.84 0 5.15-2.31 5.15-5.15a5.156 5.156 0 0 0-5.15-5.153zm0 9.124a3.976 3.976 0 0 1-3.97-3.972 3.977 3.977 0 0 1 3.97-3.973 3.977 3.977 0 0 1 3.972 3.973 3.976 3.976 0 0 1-3.972 3.972zM84.207 32.102a5.157 5.157 0 0 0-5.15 5.152 5.157 5.157 0 0 0 5.15 5.151c2.84 0 5.15-2.31 5.15-5.15a5.158 5.158 0 0 0-5.15-5.153zm0 9.124a3.976 3.976 0 0 1-3.971-3.972 3.977 3.977 0 0 1 3.97-3.973 3.977 3.977 0 0 1 3.972 3.973 3.976 3.976 0 0 1-3.971 3.972z"/>
    </g>
</svg>
