<svg xmlns="http://www.w3.org/2000/svg" width="100" height="83" viewBox="0 0 100 83">
    <g fill="none" fill-rule="evenodd">
        <path fill="#5485F9" d="M72 18h5v7h-5zM85 18h5v7h-5zM85 34h5v7h-5zM85 51h5v7h-5zM85 65h5v7h-5zM72 65h5v7h-5zM72 50h5v7h-5zM72 34h5v7h-5zM10 34h5v7h-5zM10 17h5v7h-5zM23 17h5v7h-5zM23 34h5v7h-5zM23 51h5v7h-5zM24 66h5v7h-5zM10 66h5v7h-5zM10 50h5v7h-5zM45.771 58H55v17h-9.229z"/>
        <path fill="#464646" fill-rule="nonzero" d="M15.492 32.525H8.938c-.803 0-1.338.533-1.338 1.333v7.198c0 .8.535 1.333 1.338 1.333h6.554c.802 0 1.337-.533 1.337-1.333v-7.198c0-.667-.669-1.333-1.337-1.333zm-1.338 7.331h-3.879v-4.532h3.879v4.532zM29.268 32.525h-6.554c-.802 0-1.337.533-1.337 1.333v7.198c0 .8.535 1.333 1.337 1.333h6.554c.803 0 1.338-.533 1.338-1.333v-7.198c0-.667-.67-1.333-1.338-1.333zm-1.337 7.331h-3.88v-4.532h3.88v4.532zM15.492 48.52H8.938c-.803 0-1.338.534-1.338 1.333v7.198c0 .8.535 1.333 1.338 1.333h6.554c.802 0 1.337-.533 1.337-1.333v-7.198c0-.666-.669-1.333-1.337-1.333zm-1.338 7.332h-3.879V51.32h3.879v4.532zM29.268 48.52h-6.554c-.802 0-1.337.534-1.337 1.333v7.198c0 .8.535 1.333 1.337 1.333h6.554c.803 0 1.338-.533 1.338-1.333v-7.198c0-.666-.67-1.333-1.338-1.333zm-1.337 7.332h-3.88V51.32h3.88v4.532zM15.492 64.116H8.938c-.803 0-1.338.533-1.338 1.333v7.198c0 .8.535 1.333 1.338 1.333h6.554c.802 0 1.337-.533 1.337-1.333V65.45c0-.666-.669-1.333-1.337-1.333zm-1.338 7.332h-3.879v-4.533h3.879v4.533zM29.268 64.116h-6.554c-.802 0-1.337.533-1.337 1.333v7.198c0 .8.535 1.333 1.337 1.333h6.554c.803 0 1.338-.533 1.338-1.333V65.45c0-.666-.67-1.333-1.338-1.333zm-1.337 7.332h-3.88v-4.533h3.88v4.533zM15.492 16.662H8.938c-.803 0-1.338.533-1.338 1.333v7.198c0 .8.535 1.333 1.338 1.333h6.554c.802 0 1.337-.533 1.337-1.333v-7.198c0-.8-.669-1.333-1.337-1.333zm-1.338 7.198h-3.879v-4.532h3.879v4.532zM29.268 16.662h-6.554c-.802 0-1.337.533-1.337 1.333v7.198c0 .8.535 1.333 1.337 1.333h6.554c.803 0 1.338-.533 1.338-1.333v-7.198c0-.8-.67-1.333-1.338-1.333zm-1.337 7.198h-3.88v-4.532h3.88v4.532zM70.866 42.522h6.554c.802 0 1.337-.533 1.337-1.333v-7.198c0-.8-.535-1.333-1.337-1.333h-6.554c-.803 0-1.338.533-1.338 1.333v7.198c0 .667.535 1.333 1.338 1.333zm1.337-7.331h3.879v4.532h-3.879V35.19zM84.508 42.522h6.554c.803 0 1.338-.533 1.338-1.333v-7.198c0-.8-.535-1.333-1.338-1.333h-6.554c-.802 0-1.337.533-1.337 1.333v7.198c0 .667.669 1.333 1.337 1.333zm1.338-7.331h3.879v4.532h-3.879V35.19zM70.866 58.518h6.554c.802 0 1.337-.533 1.337-1.333v-7.198c0-.8-.535-1.333-1.337-1.333h-6.554c-.803 0-1.338.533-1.338 1.333v7.198c0 .666.535 1.333 1.338 1.333zm1.337-7.332h3.879v4.532h-3.879v-4.532zM84.508 58.518h6.554c.803 0 1.338-.533 1.338-1.333v-7.198c0-.8-.535-1.333-1.338-1.333h-6.554c-.802 0-1.337.533-1.337 1.333v7.198c0 .666.669 1.333 1.337 1.333zm1.338-7.332h3.879v4.532h-3.879v-4.532zM70.866 74.114h6.554c.802 0 1.337-.534 1.337-1.333v-7.198c0-.8-.535-1.333-1.337-1.333h-6.554c-.803 0-1.338.533-1.338 1.333v7.198c0 .666.535 1.333 1.338 1.333zm1.337-7.332h3.879v4.532h-3.879v-4.532zM84.508 74.114h6.554c.803 0 1.338-.534 1.338-1.333v-7.198c0-.8-.535-1.333-1.338-1.333h-6.554c-.802 0-1.337.533-1.337 1.333v7.198c0 .666.669 1.333 1.337 1.333zm1.338-7.332h3.879v4.532h-3.879v-4.532zM70.866 26.526h6.554c.802 0 1.337-.533 1.337-1.333v-7.198c0-.8-.535-1.333-1.337-1.333h-6.554c-.803 0-1.338.533-1.338 1.333v7.198c0 .8.535 1.333 1.338 1.333zm1.337-7.198h3.879v4.532h-3.879v-4.532zM84.508 26.526h6.554c.803 0 1.338-.533 1.338-1.333v-7.198c0-.8-.535-1.333-1.338-1.333h-6.554c-.802 0-1.337.533-1.337 1.333v7.198c0 .8.669 1.333 1.337 1.333zm1.338-7.198h3.879v4.532h-3.879v-4.532z"/>
        <path fill="#464646" fill-rule="nonzero" d="M1.447 82.111h97.106c.802 0 1.337-.533 1.337-1.333v-70.38c0-.8-.535-1.334-1.337-1.334h-33.84V2c0-.8-.535-1.333-1.338-1.333h-26.75c-.803 0-1.338.534-1.338 1.333v7.065H1.447c-.802 0-1.337.533-1.337 1.333v70.381c0 .667.535 1.333 1.337 1.333zm60.59-8.664h-5.35V57.318c0-.8-.534-1.333-1.337-1.333H44.516c-.802 0-1.337.533-1.337 1.333v16.13h-5.35V38.79h24.075v34.657h.134zm-7.89 0h-8.16V58.651h8.16v14.796zm-16.185 2.666h24.076v3.332H37.962v-3.332zM97.215 11.73v67.715H64.713V11.73h32.502zM62.038 3.2v32.924H37.962V3.199h24.076zM2.785 11.73h32.502v67.715H2.785V11.73z"/>
        <path fill="#464646" fill-rule="nonzero" d="M47.994 20.528v5.065c-.67-.533-1.204-1.333-1.204-2.133s-.535-1.333-1.338-1.333c-.802 0-1.337.534-1.337 1.333 0 2.4 1.605 4.4 3.879 5.066v.666c0 .8.535 1.333 1.337 1.333.803 0 1.338-.533 1.338-1.333v-.533a5.297 5.297 0 0 0 4.146-5.199 5.297 5.297 0 0 0-4.146-5.198v-5.066c.802.4 1.337 1.333 1.337 2.267 0 .8.535 1.333 1.338 1.333.802 0 1.337-.534 1.337-1.333 0-2.533-1.738-4.533-4.012-5.066v-.533c0-.8-.535-1.333-1.338-1.333-.802 0-1.337.533-1.337 1.333v.533c-2.274.533-4.013 2.666-4.013 5.066 0 2.399 1.739 4.398 4.013 5.065zm4.146 2.8c0 1.065-.669 1.999-1.471 2.398v-4.798c.802.533 1.471 1.333 1.471 2.4zm-4.146-10.265v4.532c-.803-.4-1.338-1.333-1.338-2.266s.535-1.733 1.338-2.266z"/>
    </g>
</svg>
