<svg xmlns="http://www.w3.org/2000/svg" width="234" height="175" viewBox="0 0 234 175">
    <g fill="none" fill-rule="evenodd" stroke-linecap="round" stroke-linejoin="round">
        <path fill="#FFF" stroke="#464646" stroke-width="3.75" d="M139.937 97.712c6.065 0 10.981-4.65 10.981-10.384 0-5.735-4.916-10.385-10.98-10.385-1.164 0-2.285.171-3.337.488a9.864 9.864 0 0 0 .73-3.73c0-5.734-4.917-10.384-10.982-10.384-2.038 0-3.946.525-5.582 1.44-2.737-2.308-6.347-3.71-10.304-3.71-6.866 0-12.689 4.224-14.72 10.074-.448-.04-.901-.061-1.36-.061-7.797 0-14.118 5.977-14.118 13.351 0 7.374 6.32 13.351 14.118 13.351.198 0 .394-.003.589-.011v.011h44.965v-.05zM172.52 49.994c-.428.05-.865.077-1.309.077-5.726 0-10.369-4.39-10.369-9.806 0-5.415 4.643-9.805 10.37-9.805.207 0 .412.005.617.017a15.633 15.633 0 0 1-.888-5.202c0-9.092 7.794-16.462 17.408-16.462 7.186 0 13.355 4.117 16.012 9.993a18.468 18.468 0 0 1 9.07-2.35c9.817 0 17.775 7.525 17.775 16.807 0 9.283-7.958 16.808-17.774 16.808H172.52v-.077zM86.598 47.615c7.197-.36 12.917-5.992 12.917-12.888 0-7.128-6.11-12.907-13.649-12.907-1.13 0-2.23.13-3.281.376a17.42 17.42 0 0 0 .113-1.989C82.698 10.152 74.078 2 63.444 2c-8.533 0-15.77 5.25-18.296 12.521a18.776 18.776 0 0 0-1.689-.076c-9.69 0-17.547 7.43-17.547 16.594 0 9.165 7.856 16.594 17.547 16.594.245 0 .49-.005.732-.014v.014h42.407v-.018z"/>
        <path fill="#FFF" stroke="#464646" stroke-width="3.75" d="M68.48 65.783c7.198-.36 12.917-5.992 12.917-12.888 0-7.128-6.11-12.906-13.648-12.906-1.132 0-2.23.13-3.282.375a17.42 17.42 0 0 0 .113-1.989c0-10.055-8.62-18.207-19.253-18.207-8.534 0-15.771 5.25-18.297 12.521a18.776 18.776 0 0 0-1.688-.075c-9.691 0-17.548 7.429-17.548 16.593 0 9.165 7.856 16.594 17.548 16.594.245 0 .489-.004.731-.014v.014H68.48v-.018z"/>
        <g stroke="#5078FA" stroke-width="2">
            <path d="M31.853 73.537l-4.809 12.83M25.06 91.705l-4.81 12.83"/>
        </g>
        <g stroke="#5078FA" stroke-width="2">
            <path d="M104.324 105.331l-4.81 12.83M97.53 123.499l-4.81 12.831"/>
        </g>
        <g stroke="#5078FA" stroke-width="2">
            <path d="M90.736 142.803l-4.81 12.83M83.942 160.97l-4.81 12.832"/>
        </g>
        <g stroke="#5078FA" stroke-width="2">
            <path d="M191.515 57.64l-4.81 12.83M184.72 75.808l-4.808 12.83"/>
        </g>
        <g stroke="#5078FA" stroke-width="2">
            <path d="M177.927 95.111l-4.81 12.831M171.133 113.28l-4.81 12.83"/>
        </g>
        <g stroke="#5078FA" stroke-width="2">
            <path d="M164.339 132.583l-4.81 12.831M157.544 150.751l-4.809 12.831"/>
        </g>
        <g stroke="#5078FA" stroke-width="2">
            <path d="M18.265 111.008l-4.81 12.831M11.47 129.177l-4.808 12.83"/>
        </g>
        <g stroke="#5078FA" stroke-width="2">
            <path d="M19.397 73.537l-4.809 12.83M12.603 91.705l-4.809 12.83"/>
        </g>
        <g stroke="#5078FA" stroke-width="2">
            <path d="M91.868 105.331l-1.472 3.927M85.074 123.499l-4.81 12.831"/>
        </g>
        <path stroke="#5078FA" stroke-width="2" d="M78.28 142.803l-4.81 12.83"/>
        <g stroke="#5078FA" stroke-width="2">
            <path d="M179.06 57.64l-4.81 12.83M172.265 75.808l-4.81 12.83"/>
        </g>
        <g stroke="#5078FA" stroke-width="2">
            <path d="M165.47 95.111l-4.808 12.831M158.677 113.28l-4.81 12.83"/>
        </g>
        <path stroke="#5078FA" stroke-width="2" d="M151.883 132.583l-4.81 12.831M5.81 111.008L1 123.84"/>
        <g stroke="#5078FA" stroke-width="2">
            <path d="M44.31 73.537l-4.81 12.83M37.515 91.705l-4.81 12.83"/>
        </g>
        <g stroke="#5078FA" stroke-width="2">
            <path d="M116.78 105.331l-4.81 12.83M109.986 123.499l-4.81 12.831"/>
        </g>
        <g stroke="#5078FA" stroke-width="2">
            <path d="M103.192 142.803l-4.81 12.83M96.397 160.97l-4.809 12.832"/>
        </g>
        <g stroke="#5078FA" stroke-width="2">
            <path d="M203.97 57.64l-4.808 12.83M197.177 75.808l-4.81 12.83"/>
        </g>
        <g stroke="#5078FA" stroke-width="2">
            <path d="M190.383 95.111l-4.81 12.831M183.589 113.28l-4.81 12.83"/>
        </g>
        <g stroke="#5078FA" stroke-width="2">
            <path d="M176.794 132.583l-.239.638M170 150.751l-4.809 12.831"/>
        </g>
        <g stroke="#5078FA" stroke-width="2">
            <path d="M30.72 111.008l-4.808 12.831M23.927 129.177l-.972 2.592"/>
        </g>
        <g stroke="#5078FA" stroke-width="2">
            <path d="M56.765 73.537l-4.81 12.83M49.97 91.705l-4.808 12.83"/>
        </g>
        <g stroke="#5078FA" stroke-width="2">
            <path d="M129.236 105.331l-4.81 12.83M122.442 123.499l-4.81 12.831"/>
        </g>
        <g stroke="#5078FA" stroke-width="2">
            <path d="M115.647 142.803l-4.809 12.83M108.853 160.97l-4.809 12.832"/>
        </g>
        <g stroke="#5078FA" stroke-width="2">
            <path d="M216.427 57.64l-4.81 12.83M209.633 75.808l-4.81 12.83"/>
        </g>
        <g stroke="#5078FA" stroke-width="2">
            <path d="M202.839 95.111l-4.81 12.831M196.044 113.28l-4.809 12.83"/>
        </g>
        <path stroke="#5078FA" stroke-width="2" d="M187.555 137.108l-3.114 8.306"/>
        <g stroke="#5078FA" stroke-width="2">
            <path d="M43.177 111.008l-4.81 12.831M36.383 129.177l-2.356 6.286"/>
        </g>
        <g stroke="#5078FA" stroke-width="2">
            <path d="M69.22 73.537l-4.808 12.83M62.427 91.705l-4.81 12.83"/>
        </g>
        <g stroke="#5078FA" stroke-width="2">
            <path d="M141.692 105.331l-4.81 12.83M134.897 123.499l-4.809 12.831"/>
        </g>
        <path stroke="#5078FA" stroke-width="2" d="M128.103 142.803l-4.809 12.83M53.53 116.62l-2.706 7.22M20.074 139.457l-.956 2.55M87.26 117.625l-.201.537M173.068 142.525l-1.083 2.89"/>
    </g>
</svg>
