<svg xmlns="http://www.w3.org/2000/svg" xmlns:xlink="http://www.w3.org/1999/xlink" width="92" height="80" viewBox="0 0 92 80">
    <defs>
        <path id="a" d="M0 0h100v80H0z"/>
    </defs>
    <g fill="none" fill-rule="evenodd" transform="translate(-3)">
        <mask id="b" fill="#fff">
            <use xlink:href="#a"/>
        </mask>
        <g mask="url(#b)">
            <path fill="#5078FA" d="M22.85 71.27c2.819 2.923 6.075 4.369 9.768 4.338 3.693-.032 7.216-1.07 10.569-3.116 4.678 4.205 11.445 6.307 20.299 6.307 13.28 0 29.995-12.97 29.995-31.853 0-18.882-16.995-31.436-30.596-31.436-9.067 0-12.713.735-10.937 2.205.629 1.615.943 5.528.943 11.74 0 6.21-2.684 11.25-8.052 15.117l2.017 4.698 4.01 4.153c.27.312-2.242.468-7.533.468-2.069 0-4.22-1.614-6.456-4.844l-6.468 1.347 3.602 13.692-11.16 7.184z"/>
            <path fill="#464646" fill-rule="nonzero" d="M61.33 14.467c-3.126 0-6.25.462-9.26 1.388-1.273-2.777-2.893-5.323-5.207-7.638-9.838-10.069-26.04-10.184-36.109-.347C.801 17.707.57 33.91 10.523 43.978a25.403 25.403 0 0 0 18.17 7.639h.231c.463 3.472 1.389 6.828 3.01 9.953l.346.347v.463c.232.926.232 1.736-.231 2.43-1.62 2.778-7.523 4.514-9.606 4.977-.463.115-.694.347-.81.81-.116.347 0 .81.231 1.157 3.24 3.472 7.176 4.514 10.88 4.514 4.513 0 8.448-1.505 9.952-2.2 5.555 3.82 12.036 5.903 18.749 5.903 18.054 0 32.752-14.698 32.752-32.752 0-18.054-14.814-32.752-32.868-32.752zM12.142 42.358c-9.027-9.143-8.796-23.84.347-32.868C21.633.463 36.33.694 45.358 9.837c2.199 2.315 3.935 4.861 4.977 7.639v.231c3.24 8.217 1.62 17.823-4.861 24.535l-.463.463c-.81 1.042-1.157 2.2-.926 3.588.347 2.662 2.893 5.092 4.745 6.597-6.134 1.504-10.995-4.282-11.226-4.514-.347-.463-.926-.463-1.505-.231h-.231c-8.448 2.777-17.591.578-23.725-5.787zm49.186 35.298c-6.48 0-12.73-2.083-17.938-5.902 0 0-.116 0-.116-.116-.116 0-.116-.115-.232-.115h-.463c-.115 0-.115 0-.231.115h-.116c-.115 0-10.3 5.093-17.244-.115 2.662-.81 7.291-2.547 9.027-5.556.81-1.388.926-2.777.463-4.397-.116-.232-.231-.348-.347-.579 0-.232 0-.463-.116-.579a31.38 31.38 0 0 1-2.777-9.027c1.736-.116 3.356-.463 5.092-1.041 1.389 1.388 5.324 4.976 10.416 4.976 1.504 0 3.24-.347 4.86-1.157a1.8 1.8 0 0 0 .695-.926c0-.463-.116-.81-.463-1.042-1.389-.926-5.092-3.935-5.555-6.365-.116-.694 0-1.157.463-1.736l.463-.463c6.828-7.175 8.795-17.128 5.786-25.808 2.778-.81 5.556-1.158 8.449-1.158 16.781 0 30.437 13.657 30.437 30.438S78.11 77.656 61.33 77.656z"/>
            <path fill="#FFF" fill-rule="nonzero" d="M63.412 47.335V37.15c2.315.579 3.935 2.546 3.935 4.977 0 .694.463 1.157 1.158 1.157.694 0 1.157-.463 1.157-1.157 0-3.704-2.778-6.829-6.25-7.292v-1.62c0-.694-.463-1.157-1.157-1.157s-1.157.463-1.157 1.157v1.62c-3.588.58-6.25 3.588-6.25 7.292 0 3.703 2.778 6.828 6.25 7.29v10.07c-2.2-.463-3.704-2.43-3.704-4.746 0-.694-.463-1.157-1.157-1.157-.695 0-1.157.463-1.157 1.157 0 3.588 2.546 6.597 6.018 7.292v1.736c0 .694.463 1.157 1.157 1.157s1.157-.463 1.157-1.157v-1.62c3.704-.464 6.481-3.588 6.481-7.408 0-3.819-2.777-6.944-6.48-7.406zm-6.25-5.208c0-2.43 1.737-4.398 3.936-4.977v9.953c-2.315-.463-3.935-2.546-3.935-4.976zm6.25 17.59V49.65c2.43.463 4.167 2.546 4.167 4.977 0 2.43-1.736 4.745-4.167 5.092z"/>
            <path fill="#464646" fill-rule="nonzero" d="M29.85 38.539v-1.157c3.009-.463 5.44-3.125 5.44-6.25 0-3.24-2.315-5.787-5.44-6.25v-7.985c1.62.463 2.893 2.083 2.893 3.82 0 .693.463 1.156 1.158 1.156.694 0 1.157-.463 1.157-1.157 0-3.125-2.199-5.67-5.208-6.25v-1.273c0-.694-.463-1.157-1.157-1.157-.695 0-1.158.463-1.158 1.157v1.274c-3.009.578-5.208 3.124-5.208 6.25 0 3.124 2.2 5.67 5.208 6.249v7.985c-1.504-.578-2.662-2.083-2.662-3.819 0-.694-.463-1.157-1.157-1.157s-1.157.463-1.157 1.157c0 3.009 2.199 5.555 4.976 6.25v1.273c0 .694.463 1.157 1.158 1.157.694 0 1.157-.694 1.157-1.273zm3.125-7.523c0 1.852-1.273 3.472-3.125 3.935v-7.87c1.852.463 3.125 1.968 3.125 3.935zM24.642 20.6c0-1.851 1.273-3.356 2.893-3.819v7.754c-1.62-.578-2.893-2.083-2.893-3.935z"/>
        </g>
    </g>
</svg>
