<svg xmlns="http://www.w3.org/2000/svg" xmlns:xlink="http://www.w3.org/1999/xlink" width="88" height="80" viewBox="0 0 88 80">
    <defs>
        <path id="a" d="M0 0h100v80H0z"/>
    </defs>
    <g fill="none" fill-rule="evenodd" transform="translate(-6)">
        <mask id="b" fill="#fff">
            <use xlink:href="#a"/>
        </mask>
        <g mask="url(#b)">
            <g transform="translate(6)">
                <circle cx="14.863" cy="66.885" r="4.372" fill="#5485F9"/>
                <circle cx="34.536" cy="58.142" r="4.372" fill="#5485F9"/>
                <circle cx="54.645" cy="59.454" r="4.372" fill="#5485F9"/>
                <circle cx="72.131" cy="33.224" r="4.372" fill="#5485F9"/>
                <g fill="#464646" fill-rule="nonzero">
                    <path d="M1.518 80h84.824a1.518 1.518 0 0 0 0-3.037h-30.69c-.135-.698-.724-1.241-1.462-1.241-.736 0-1.326.542-1.461 1.241H3.036V1.518a1.518 1.518 0 0 0-3.036 0V78.48C0 79.32.678 80 1.518 80z"/>
                    <path d="M10.628 53.568c.227 0 .456-.05.673-.157.757-.375 18.705-9.314 31.035-20.08 9.151-7.988 16.771-19.897 20.297-25.893l.084.542a1.518 1.518 0 1 0 3-.466L65 2.889a1.517 1.517 0 0 0-.69-1.038c-.073-.058-.13-.13-.216-.176a1.488 1.488 0 0 0-.727-.155 1.494 1.494 0 0 0-.4.042c-.013.005-.026.005-.04.008-.086.02-.178.017-.261.052l-4.44 1.912a1.517 1.517 0 1 0 1.2 2.788l.436-.188c-3.514 5.92-10.915 17.392-19.524 24.909-12.028 10.5-30.203 19.555-30.385 19.644a1.52 1.52 0 1 0 .677 2.881zM15.07 71.633a5.969 5.969 0 0 0 5.962-5.963c0-.402-.043-.794-.118-1.173l8.72-4.212c1.08 1.474 2.805 2.442 4.763 2.454.012 0 .023.008.036.008.014 0 .025-.008.037-.008 2.644-.017 4.86-1.771 5.62-4.171l7.89 1.559c.587 2.674 2.968 4.686 5.816 4.686a5.969 5.969 0 0 0 5.962-5.963 5.887 5.887 0 0 0-.83-2.982l12.42-16.936c.56.18 1.142.301 1.758.307.017 0 .032.01.049.01.014 0 .026-.007.04-.007a5.966 5.966 0 0 0 5.927-5.958 5.969 5.969 0 0 0-5.962-5.962 5.969 5.969 0 0 0-5.963 5.962c0 1.552.61 2.954 1.585 4.017L56.75 53.706c-.875-.504-1.875-.815-2.954-.815-2.661 0-4.894 1.764-5.657 4.174l-7.889-1.559c-.587-2.674-2.969-4.685-5.817-4.685a5.969 5.969 0 0 0-5.962 5.962c0 .226.043.442.067.66l-8.986 4.34c-1.094-1.26-2.688-2.075-4.482-2.075a5.969 5.969 0 0 0-5.963 5.962 5.97 5.97 0 0 0 5.963 5.963zm58.09-41.274a2.93 2.93 0 0 1 2.926 2.927 2.93 2.93 0 0 1-2.926 2.926 2.93 2.93 0 0 1-2.927-2.926 2.93 2.93 0 0 1 2.927-2.927zM53.797 55.927a2.93 2.93 0 0 1 2.927 2.926 2.929 2.929 0 0 1-2.913 2.925l-.008-.001c-.004 0-.007.003-.01.003a2.926 2.926 0 1 1 .005-5.853zm-19.364-2.07a2.93 2.93 0 0 1 2.927 2.926 2.93 2.93 0 0 1-2.927 2.926 2.93 2.93 0 0 1-2.926-2.926 2.93 2.93 0 0 1 2.926-2.927zM15.07 62.744a2.93 2.93 0 0 1 2.926 2.927 2.93 2.93 0 0 1-2.914 2.925c-.006 0-.01-.003-.017-.003-.004 0-.007.003-.012.003a2.93 2.93 0 0 1-2.908-2.925 2.927 2.927 0 0 1 2.925-2.927zM13.661 74.377c0 .835.683 1.518 1.518 1.518.85 0 1.518-.683 1.518-1.518s-.668-1.518-1.518-1.518c-.835 0-1.518.683-1.518 1.518z"/>
                    <circle cx="34.912" cy="65.269" r="1.518"/>
                    <path d="M34.912 68.305c-.835 0-1.518.668-1.518 1.518 0 .835.683 1.518 1.518 1.518.834 0 1.517-.683 1.517-1.518 0-.85-.683-1.518-1.517-1.518zM34.912 72.859c-.835 0-1.518.668-1.518 1.518 0 .835.683 1.518 1.518 1.518.834 0 1.517-.683 1.517-1.518 0-.85-.683-1.518-1.517-1.518z"/>
                    <circle cx="54.644" cy="72.859" r="1.518"/>
                    <circle cx="54.644" cy="68.305" r="1.518"/>
                    <path d="M74.377 54.644c-.835 0-1.518.668-1.518 1.518 0 .835.683 1.518 1.518 1.518.85 0 1.518-.683 1.518-1.518 0-.85-.668-1.518-1.518-1.518zM74.377 40.983c-.835 0-1.518.668-1.518 1.518 0 .835.683 1.518 1.518 1.518.85 0 1.518-.683 1.518-1.518 0-.85-.668-1.518-1.518-1.518zM74.377 63.752c-.835 0-1.518.667-1.518 1.517 0 .835.683 1.518 1.518 1.518.85 0 1.518-.683 1.518-1.518 0-.85-.668-1.517-1.518-1.517zM74.377 50.09c-.835 0-1.518.668-1.518 1.518 0 .835.683 1.518 1.518 1.518.85 0 1.518-.683 1.518-1.518 0-.85-.668-1.517-1.518-1.517zM74.377 45.537c-.835 0-1.518.668-1.518 1.518 0 .835.683 1.518 1.518 1.518.85 0 1.518-.683 1.518-1.518 0-.85-.668-1.518-1.518-1.518zM74.377 59.198c-.835 0-1.518.668-1.518 1.518 0 .835.683 1.518 1.518 1.518.85 0 1.518-.683 1.518-1.518 0-.85-.668-1.518-1.518-1.518zM74.377 72.859c-.835 0-1.518.668-1.518 1.518 0 .835.683 1.518 1.518 1.518.85 0 1.518-.683 1.518-1.518 0-.85-.668-1.518-1.518-1.518zM74.377 68.305c-.835 0-1.518.668-1.518 1.518 0 .835.683 1.518 1.518 1.518.85 0 1.518-.683 1.518-1.518 0-.85-.668-1.518-1.518-1.518z"/>
                </g>
            </g>
        </g>
    </g>
</svg>
