<svg xmlns="http://www.w3.org/2000/svg" xmlns:xlink="http://www.w3.org/1999/xlink" width="82" height="80" viewBox="0 0 82 80">
    <defs>
        <path id="a" d="M0 0h100v80H0z"/>
    </defs>
    <g fill="none" fill-rule="evenodd" transform="translate(-9)">
        <mask id="b" fill="#fff">
            <use xlink:href="#a"/>
        </mask>
        <g mask="url(#b)">
            <path fill="#5078FA" d="M11.096 8.83l10.251.126-.176 5.293 5.965-.045-.002-5.742 45.639.136.551 4.997 6.359-.008-.56-4.951 10.883.18-.173 13.021-79.605-.053z"/>
            <path fill="#464646" fill-rule="nonzero" d="M52.24 47.595V36.658c2.532.507 4.456 2.734 4.456 5.367 0 .608.405 1.013 1.013 1.013.607 0 1.013-.405 1.013-1.013 0-3.848-2.836-6.987-6.481-7.392v-1.924c0-.608-.406-1.013-1.013-1.013-.608 0-1.013.405-1.013 1.013v1.924c-3.645.506-6.48 3.645-6.48 7.392 0 3.848 2.835 6.988 6.48 7.494v10.937c-2.43-.608-4.253-2.734-4.253-5.367 0-.608-.405-1.013-1.013-1.013-.607 0-1.012.405-1.012 1.013 0 3.746 2.734 6.784 6.278 7.392v1.924c0 .608.405 1.013 1.013 1.013.607 0 1.013-.405 1.013-1.013v-1.823c3.746-.405 6.784-3.544 6.784-7.493 0-3.95-3.038-7.089-6.784-7.494zm-6.48-5.57c0-2.633 1.924-4.962 4.455-5.367v10.836a5.553 5.553 0 0 1-4.456-5.469zm6.48 18.532V49.62c2.633.405 4.76 2.633 4.76 5.469 0 2.835-2.127 5.063-4.76 5.468z"/>
            <path fill="#464646" fill-rule="nonzero" d="M89.709 7.595h-9.924V1.114C79.785.506 79.38.1 78.772.1H73c-.608 0-1.013.405-1.013 1.013v6.48H28.038v-6.48C28.038.506 27.633.1 27.025.1h-5.772c-.607 0-1.012.405-1.012 1.013v6.48H10.215c-.607 0-1.012.406-1.012 1.014v69.67c0 .608.405 1.013 1.012 1.013H89.81c.608 0 1.013-.405 1.013-1.013V8.608c-.101-.608-.507-1.013-1.114-1.013zM74.013 2.127h3.746v10.632h-3.746V2.127zm-51.747 0h3.747v10.632h-3.747V2.127zM20.24 9.62v4.152c0 .608.405 1.013 1.012 1.013h5.772c.608 0 1.013-.405 1.013-1.013V9.62h44.05v4.152c0 .608.406 1.013 1.013 1.013h5.772c.608 0 1.013-.405 1.013-1.013V9.62h8.911v11.038h-77.57V9.62h9.014zm-9.013 67.646V22.684h77.57v54.582h-77.57z"/>
        </g>
    </g>
</svg>
