<svg xmlns="http://www.w3.org/2000/svg" xmlns:xlink="http://www.w3.org/1999/xlink" width="100" height="59" viewBox="0 0 100 59">
    <defs>
        <path id="a" d="M0 0h100v80H0z"/>
    </defs>
    <g fill="none" fill-rule="evenodd" transform="translate(0 -11)">
        <mask id="b" fill="#fff">
            <use xlink:href="#a"/>
        </mask>
        <g mask="url(#b)">
            <path fill="#5078FA" d="M20.498 31.772l34.832-.116.289 10.624-10.703.218-.394 11.283-11.312-.425-4.718 5.205-4.532-5.159-3.784-.46z"/>
            <path fill="#464646" fill-rule="nonzero" d="M80.43 41.345H57.298V31.192c0-.794-.645-1.438-1.437-1.438H20.11c-.794 0-1.438.644-1.438 1.438v22.467c0 .794.644 1.438 1.438 1.438h3.13l3.606 5.767c.26.417.712.672 1.202.677h.016a1.44 1.44 0 0 0 1.202-.648l3.805-5.797h10.173v6.526c0 .794.644 1.438 1.438 1.438H67.47l3.806 5.796c.264.406.716.651 1.203.651h.014c.49-.006.945-.262 1.204-.675l3.606-5.77h3.129c.795 0 1.437-.645 1.437-1.439v-18.84a1.438 1.438 0 0 0-1.438-1.438zM32.296 52.22a1.44 1.44 0 0 0-1.202.65l-3 4.569-2.838-4.542a1.433 1.433 0 0 0-1.218-.676h-2.49V32.63H54.42v8.716h-9.74c-.793 0-1.437.644-1.437 1.438v9.437h-10.95zm46.698 7.965h-2.488c-.496 0-.957.256-1.22.676l-2.836 4.542-3-4.57a1.437 1.437 0 0 0-1.201-.65H46.119V44.222h32.874v15.964zM77.965 37.576a1.437 1.437 0 0 1-1.437-1.438v-11.22a1.437 1.437 0 1 1 2.875 0v11.22c0 .794-.645 1.438-1.438 1.438zM98.332 47.085H87.113a1.437 1.437 0 1 1 0-2.875h11.219a1.437 1.437 0 1 1 0 2.874zM85.48 39.25a1.437 1.437 0 0 1-1.016-2.455l7.933-7.934a1.44 1.44 0 0 1 2.035 0 1.44 1.44 0 0 1 0 2.033l-7.935 7.934a1.434 1.434 0 0 1-1.016.422zM23.011 25.772c.795 0 1.438-.643 1.438-1.437v-11.22a1.438 1.438 0 1 0-2.876 0v11.22c0 .794.644 1.437 1.438 1.437zM2.389 35.283h11.217a1.437 1.437 0 1 0 0-2.876H2.39a1.439 1.439 0 0 0 0 2.876zM15.497 27.447a1.437 1.437 0 0 0 1.016-2.455l-7.932-7.934a1.438 1.438 0 0 0-2.035 2.033l7.935 7.935c.28.28.649.42 1.016.42z"/>
        </g>
    </g>
</svg>
