<svg xmlns="http://www.w3.org/2000/svg" xmlns:xlink="http://www.w3.org/1999/xlink" width="53" height="80" viewBox="0 0 53 80">
    <defs>
        <path id="a" d="M0 0h100v80H0z"/>
    </defs>
    <g fill="none" fill-rule="evenodd" transform="translate(-23)">
        <mask id="b" fill="#fff">
            <use xlink:href="#a"/>
        </mask>
        <g mask="url(#b)">
            <g transform="translate(24 1)">
                <path fill="#5078FA" d="M1.012 12.611h6.465v57.135h36.802V12.605h5.606V77.8H1.415z"/>
                <path fill="#464646" fill-rule="nonzero" stroke="#464646" stroke-width=".25" d="M16.093 35.111l5.949-4.584 6.242 6.827c.195.195.488.293.683.293.195 0 .39-.098.585-.195l6.047-4.877v1.268c0 .585.39.976.975.976s.975-.39.975-.976v-3.608c0-.586-.39-.976-.975-.976H32.38c-.585 0-.975.39-.975.976 0 .585.39.975.975.975h1.95l-5.168 4.194-6.242-6.827c-.293-.39-.878-.39-1.268-.098l-6.73 5.17c-.39.292-.487.974-.195 1.365.39.39.975.487 1.366.097z"/>
                <circle cx="25.553" cy="6.73" r="1.463" fill="#464646" fill-rule="nonzero"/>
                <path fill="#464646" fill-rule="nonzero" stroke="#464646" stroke-width=".25" d="M.975 78.902h49.156c.585 0 .975-.39.975-.975V12.29c0-.585-.39-.975-.975-.975H39.988v-.976c0-2.536-2.341-4.681-5.17-4.681h-2.633C31.698 2.438 28.967 0 25.553 0c-3.413 0-6.144 2.438-6.632 5.657h-2.73c-2.83 0-5.17 2.048-5.17 4.681v.976H.975c-.585 0-.975.39-.975.975v65.638c0 .488.488.975.975.975zM13.07 10.338c0-1.463 1.463-2.73 3.219-2.73h3.608c.585 0 .976-.39.976-.976 0-2.633 2.145-4.681 4.681-4.681 2.633 0 4.682 2.145 4.682 4.681 0 .585.39.975.975.975h3.609c1.755 0 3.218 1.17 3.218 2.731v4.877H13.069v-4.877zm-.975 6.827h26.918c.586 0 .976-.39.976-.975v-2.926h2.926V69.15H8.193V13.264h2.828v2.926c.098.585.488.975 1.073.975zm-10.143-3.9h4.291v56.86c0 .585.39.975.975.975H43.89c.585 0 .975-.39.975-.975v-56.86h4.292v63.687H1.95V13.264z"/>
                <path fill="#464646" fill-rule="nonzero" stroke="#464646" stroke-width=".25" d="M13.264 51.594H37.94c.585 0 .975-.39.975-.975 0-.586-.39-.976-.975-.976H13.264c-.585 0-.975.39-.975.976 0 .585.39.975.975.975zM13.264 59.786H37.94c.585 0 .975-.39.975-.975s-.39-.975-.975-.975H13.264c-.585 0-.975.39-.975.975s.39.975.975.975z"/>
            </g>
        </g>
    </g>
</svg>
