<svg xmlns="http://www.w3.org/2000/svg" xmlns:xlink="http://www.w3.org/1999/xlink" width="80" height="80" viewBox="0 0 80 80">
    <defs>
        <path id="a" d="M0 0h100v80H0z"/>
    </defs>
    <g fill="none" fill-rule="evenodd" transform="translate(-10)">
        <mask id="b" fill="#fff">
            <use xlink:href="#a"/>
        </mask>
        <g mask="url(#b)">
            <path fill="#5078FA" d="M21.943 33.901l48.25 15.678-9.648 29.692-48.25-15.678z"/>
            <path fill="#464646" fill-rule="nonzero" stroke="#464646" d="M11.39 64.585c.098 0 .098.098.195.098 0 0 .098 0 .098.097l48 15.025h.293c.097 0 .195 0 .292-.098h.195s.098 0 .098-.097c0 0 .098 0 .098-.098v-.097s.097-.098.097-.195c0-.098.098-.098.098-.196v-.097l6.244-19.903 21.073-8.878c.195-.097.39-.292.488-.487.097-.196.097-.488 0-.781l-20-47.61a.88.88 0 0 0-.586-.585c-.195-.098-.488-.098-.78 0l-32 13.463c-.195.098-.39.293-.488.488-.098.195-.098.488 0 .78l10.732 25.562-24-7.513h-.39-.098c-.098 0-.195 0-.195.098 0 0-.098 0-.098.098-.097 0-.097.097-.195.097l-.098.098v.097c0 .098-.097.098-.097.195v.098L11 63.512v.683c0 .098.098.098.098.195 0 .098.097.098.097.098.098 0 .195 0 .195.097zM21.634 36.39l17.17 19.708-25.365 6.341 8.195-26.049zm37.951 40.488L42.317 57.171l25.366-6.342-8.098 26.049zM40.171 57.756l16.78 19.122-41.366-12.976 24.586-6.146zM36.95 15.61L67.195 2.927l19.317 46.146-18.634 7.805 2.244-7.122v-.097-.196-.097-.098c0-.097 0-.097-.098-.195 0 0 0-.097-.097-.097 0-.098-.098-.098-.098-.196l-.097-.097c-.098-.098-.195-.098-.293-.195L67 47.708l11.805-4.976c.488-.195.683-.78.488-1.269-.195-.487-.78-.78-1.269-.487l-13.756 5.756c-.097 0-.097.097-.097.097l-8.683-2.731 20.39-8.586c.488-.195.683-.78.488-1.268-.195-.488-.78-.78-1.268-.488L52.56 43.22l-4.585-1.464L36.95 15.61zm15.22 29.56c.097 0 .097 0 .195.098l13.17 4.098-24.682 6.146L24.17 36.39l28 8.78z"/>
            <path fill="#464646" fill-rule="nonzero" stroke="#464646" stroke-width=".5" d="M57.439 24.585l1.951 4.976c-1.073-.098-2.049-.683-2.439-1.756-.195-.488-.78-.78-1.268-.585-.488.195-.78.78-.585 1.268a4.622 4.622 0 0 0 2.536 2.536c.586.293 1.268.39 1.854.39.195 0 .39 0 .683-.097l.292.78c.196.39.488.586.878.586.098 0 .196 0 .39-.098.489-.195.781-.78.586-1.268l-.293-.683c1.854-1.17 2.732-3.61 1.854-5.756a4.622 4.622 0 0 0-2.537-2.537 4.664 4.664 0 0 0-2.829-.292l-1.951-4.976c1.073 0 2.146.683 2.634 1.756.195.488.78.78 1.268.586.488-.195.78-.78.586-1.269a4.919 4.919 0 0 0-5.171-2.926l-.293-.586c-.195-.488-.78-.78-1.268-.585-.488.195-.78.78-.585 1.268l.292.683c-.78.488-1.365 1.17-1.756 2.049-.488 1.17-.488 2.439-.097 3.61.975 2.146 3.122 3.317 5.268 2.926zm3.22-.292a2.69 2.69 0 0 1 1.463 1.463c.488 1.17.098 2.44-.78 3.122L59.39 24c.39 0 .78.098 1.269.293zm-6.537-5.464c.195-.39.39-.683.683-.975l1.854 4.78c-1.074 0-2.147-.683-2.635-1.756a2.99 2.99 0 0 1 .098-2.049z"/>
        </g>
    </g>
</svg>
