<svg xmlns="http://www.w3.org/2000/svg" xmlns:xlink="http://www.w3.org/1999/xlink" width="90" height="80" viewBox="0 0 90 80">
    <defs>
        <path id="a" d="M0 0h100v80H0z"/>
    </defs>
    <g fill="none" fill-rule="evenodd" transform="translate(-5)">
        <mask id="b" fill="#fff">
            <use xlink:href="#a"/>
        </mask>
        <g mask="url(#b)">
            <path fill="#5078FA" d="M7.438 18.957L51.875 2.21l3.577 9.394-17.868 50.06 18.52 6.72-26.642 10.043z"/>
            <path fill="#464646" fill-rule="nonzero" d="M60.342 23.014c.11 0 .33 0 .439-.11l1.205-.548.548 1.206c.22.438.548.657.987.657.11 0 .328 0 .438-.11.548-.219.767-.876.548-1.424l-.548-1.206 1.315-.657c.548-.22.767-.877.548-1.425-.22-.548-.877-.767-1.425-.548l-1.315.658-.548-1.206c-.219-.548-.876-.767-1.424-.548-.548.22-.768.877-.548 1.425l.548 1.206-1.315.548c-.548.219-.768.876-.548 1.424.219.439.657.658 1.095.658zM68.671 23.89l14.795 5.26c.11 0 .219.11.329.11.438 0 .876-.328.986-.767.219-.548-.11-1.205-.658-1.425l-14.794-5.26c-.548-.219-1.206.11-1.425.658-.11.548.11 1.205.767 1.424zM57.384 27.945l.548 1.206-1.206.548c-.548.219-.767.876-.548 1.424.22.439.548.658.986.658.11 0 .33 0 .439-.11l1.205-.548.548 1.206c.22.438.548.657.986.657.11 0 .33 0 .439-.11.548-.218.767-.876.548-1.424l-.439-1.205 1.206-.548c.548-.22.767-.877.548-1.425-.22-.548-.877-.767-1.425-.548l-1.205.548-.548-1.206c-.22-.547-.877-.767-1.425-.547-.767.219-.986.876-.657 1.424zM64.836 31.233c-.22.548.11 1.205.657 1.425l14.795 5.26c.11 0 .219.11.328.11.439 0 .877-.33.987-.768.219-.548-.11-1.205-.658-1.424l-14.794-5.26c-.548-.11-1.206.109-1.315.657zM53.986 40.767c.11 0 .33 0 .439-.11l1.205-.547.548 1.205c.22.438.548.658.986.658.11 0 .33 0 .439-.11.548-.22.767-.877.548-1.425l-.548-1.205 1.205-.548c.548-.22.767-.877.548-1.425-.219-.548-.877-.767-1.424-.548l-1.206.548-.548-1.205c-.22-.548-.877-.767-1.425-.548-.548.219-.767.877-.548 1.425l.548 1.205-1.205.548c-.548.22-.767.877-.548 1.425.22.328.548.657.986.657zM77.767 44.712l-14.685-5.26c-.548-.22-1.205.11-1.424.658-.22.548.11 1.205.657 1.424l14.795 5.26c.11 0 .219.11.328.11.439 0 .877-.329.987-.767.219-.548-.11-1.205-.658-1.425zM54.534 47.89l1.206-.548c.548-.219.767-.876.548-1.424-.22-.548-.877-.767-1.425-.548l-1.205.548-.548-1.206c-.22-.548-.877-.767-1.425-.548-.548.22-.767.877-.548 1.425l.548 1.206-1.206.547c-.547.22-.767.877-.547 1.425.219.438.547.658.986.658.11 0 .329 0 .438-.11l1.206-.548.548 1.206c.219.438.548.657.986.657.11 0 .329 0 .438-.11.548-.219.767-.876.548-1.424l-.548-1.206zM74.589 53.589l-14.794-5.26c-.548-.22-1.206.11-1.425.657-.22.548.11 1.206.657 1.425l14.795 5.26c.11 0 .22.11.329.11.438 0 .876-.329.986-.767.329-.658 0-1.206-.548-1.425zM51.685 54.137l-1.206.658-.547-1.206c-.22-.548-.877-.767-1.425-.548-.548.22-.767.877-.548 1.425l.548 1.205-1.206.548c-.548.22-.767.877-.548 1.425.22.438.548.657.987.657.11 0 .328 0 .438-.11l1.206-.547.548 1.205c.219.439.547.658.986.658.11 0 .329 0 .438-.11.548-.219.767-.876.548-1.424l-.548-1.206 1.206-.548c.548-.219.767-.877.548-1.424-.22-.658-.877-.877-1.425-.658zM71.411 62.356l-14.795-5.26c-.548-.22-1.205.11-1.424.657-.22.548.11 1.206.657 1.425l14.904 5.26c.11 0 .22.11.33.11.438 0 .876-.329.985-.767.22-.548 0-1.206-.657-1.425z"/>
            <path fill="#464646" fill-rule="nonzero" d="M94.315 21.699l-37.26-13.37a1.21 1.21 0 0 0-.877 0 1.32 1.32 0 0 0-.548.548l-2.74-7.343s0-.11-.11-.11c0-.109-.109-.109-.109-.219l-.11-.11c-.109 0-.109-.109-.219-.109s-.11 0-.219-.11h-.11-.547L6.425 17.864c-.11 0-.11.11-.22.11s-.11.11-.219.11c0 0 0 .109-.11.109l-.109.11v.877l22.575 60.054c.22.438.548.657.987.657.11 0 .219 0 .438-.11l27.726-10.41 17.425 6.246c.11 0 .219.11.329.11.11 0 .328 0 .438-.11.22-.11.438-.328.548-.657l18.63-52.055c.329-.438 0-1.096-.548-1.205zM50.48 3.616l-1.095 7.89-34.411 12.932-6.028-5.15L50.48 3.616zM29.986 77.48L9.384 22.466l4.712 4.055c.22.219.438.219.767.219.11 0 .22 0 .438-.11l35.617-13.37c.329-.11.657-.438.657-.876l.877-6.137 2.192 5.698L37.11 60.932c-.22.547.11 1.205.657 1.424l16.658 6.028-24.439 9.095zm44.603-4.164L39.301 60.712 57.164 10.74l35.288 12.602L74.59 73.315z"/>
        </g>
    </g>
</svg>
