<svg xmlns="http://www.w3.org/2000/svg" xmlns:xlink="http://www.w3.org/1999/xlink" width="88" height="79" viewBox="0 0 88 79">
    <defs>
        <path id="a" d="M0 0h100v80H0z"/>
    </defs>
    <g fill="none" fill-rule="evenodd" transform="translate(-6 -1)">
        <mask id="b" fill="#fff">
            <use xlink:href="#a"/>
        </mask>
        <g fill="#464646" fill-rule="nonzero" mask="url(#b)">
            <path d="M93.273 25.636c0-6.363-2.546-12.181-6.91-16.727-9.09-9.09-23.454-9.273-32.727-.545 0 0-.181 0-.181.181l-3.273 3.273-4-3.818a23.594 23.594 0 0 0-33.455 0C8.364 12.182 6 18.182 6 24.545c0 6.364 2.545 12.182 6.91 16.728l2.545 2.545c-1.273 1.273-2 3.091-2 4.91 0 2 .727 3.817 2.181 5.09C17.091 55.273 18.91 56 20.727 56h.364c-.182 2 .545 4 2.182 5.636 1.454 1.455 3.272 2.182 5.09 2.182h.364v.546c0 2 .728 3.818 2.182 5.09 1.455 1.455 3.273 2.182 5.091 2.182h.364c-.182 2 .545 4 2.181 5.637 1.455 1.454 3.273 2.182 5.091 2.182 2 0 3.637-.728 5.091-2l6.546-6.546c.363-.364.727-.727.909-1.09 1.454 1.272 3.09 2 4.909 2 1.818 0 3.636-.728 5.09-2.183 1.455-1.454 2.183-3.272 2.183-5.09V64h.545c2 0 3.818-.727 5.091-2.182 1.455-1.454 2.182-3.273 2.182-5.09v-.546h.545c1.818 0 3.637-.727 5.091-2.182C83.273 52.545 84 50.727 84 48.91c0-1.092-.364-2.183-.727-3.274l3.09-3.09c4.546-4.728 6.91-10.546 6.91-16.91zM20.727 52.364c-.909 0-1.818-.364-2.545-1.091-.727-.728-1.091-1.637-1.091-2.546 0-.909.364-1.818 1.09-2.545l6.546-6.546c.728-.727 1.455-1.09 2.546-1.09.909 0 1.818.363 2.545 1.09 1.455 1.455 1.455 3.637 0 5.091l-6.545 6.546c-.728.727-1.637 1.09-2.546 1.09zM28.545 60c-.909 0-1.818-.364-2.545-1.09-1.455-1.455-1.455-3.637 0-5.092l6.545-6.545c.728-.728 1.455-1.091 2.546-1.091.909 0 1.818.363 2.545 1.09.728.728 1.091 1.637 1.091 2.546 0 .91-.363 1.818-1.09 2.546l-6.546 6.545c-.727.727-1.636 1.091-2.546 1.091zm7.637 7.818c-.91 0-1.818-.363-2.546-1.09-.727-.728-1.09-1.637-1.09-2.546 0-.91.363-1.818 1.09-2.546l6.546-6.545c.727-.727 1.454-1.091 2.545-1.091.91 0 1.818.364 2.546 1.09 1.454 1.455 1.454 3.637 0 5.092l-6.546 6.545c-.727.728-1.636 1.091-2.545 1.091zm10.182 6.727c-1.273 1.273-3.637 1.273-5.091 0-1.455-1.454-1.455-3.636 0-5.09l6.545-6.546c.727-.727 1.455-1.09 2.546-1.09.909 0 1.818.363 2.545 1.09.727.727 1.091 1.636 1.091 2.546 0 .909-.364 1.818-1.09 2.545l-6.546 6.545zm33.09-23.272c-1.454 1.454-3.818 1.454-5.09 0L60.909 37.818c-.727-.727-1.818-.727-2.545 0-.728.727-.728 1.818 0 2.546l13.454 13.454c.727.727 1.091 1.637 1.091 2.546 0 .909-.364 1.818-1.09 2.545-1.455 1.455-3.819 1.455-5.092 0L51.818 44c-.727-.727-1.818-.727-2.545 0-.728.727-.728 1.818 0 2.545l14.909 14.91c.727.727 1.09 1.636 1.09 2.545 0 .91-.363 1.818-1.09 2.545-1.455 1.455-3.637 1.455-5.091 0l-1.273-1.272c0-2-.727-3.818-2.182-5.091C54.182 58.727 52.364 58 50.546 58h-.364c.182-2-.546-4-2.182-5.636-1.455-1.455-3.273-2.182-5.09-2.182h-.365v-.546c0-2-.727-3.818-2.181-5.09-1.455-1.455-3.273-2.182-5.091-2.182h-.364c.182-2-.545-4-2.182-5.637-1.454-1.454-3.272-2.182-5.09-2.182-2 0-3.637.728-5.092 2l-4.181 4.182-2.546-2.545c-4.182-3.273-6.182-8.364-6.182-13.637 0-5.272 2-10.363 5.819-14.181 7.818-7.819 20.545-7.819 28.363 0l4 3.818-9.636 9.636c-1.637 1.637-2.727 4-2.727 6.364 0 2.363.909 4.727 2.727 6.363 1.818 1.819 4.182 2.728 6.363 2.728 2.182 0 4.728-.91 6.364-2.728l9.636-9.636 18.91 18.91c.727.726 1.09 1.636 1.09 2.545s-.363 2.181-1.09 2.909zm1.637-8.728L61.818 23.273c-.545-.546-1.273-.728-2-.364-.182 0-.363.182-.545.364l-10.91 10.909c-2.181 2.182-5.636 2.182-7.636 0-1.09-1.091-1.636-2.364-1.636-3.818 0-1.455.545-2.91 1.636-3.819l14.91-14.909c7.636-8 20.363-8 28.181-.181 3.818 3.818 5.818 8.727 5.818 14.181 0 5.273-2 10.364-5.818 14.182l-2.727 2.727z"/>
        </g>
    </g>
</svg>
