<svg xmlns="http://www.w3.org/2000/svg" xmlns:xlink="http://www.w3.org/1999/xlink" width="60" height="80" viewBox="0 0 60 80">
    <defs>
        <path id="a" d="M0 0h100v80H0z"/>
    </defs>
    <g fill="none" fill-rule="evenodd" transform="translate(-20)">
        <mask id="b" fill="#fff">
            <use xlink:href="#a"/>
        </mask>
        <g mask="url(#b)">
            <path fill="#5078FA" d="M33 58h32v21H33z"/>
            <path fill="#464646" fill-rule="nonzero" d="M33.422.53c-.529 0-.992.462-.992.991v5.62h-7.67c-1.389 0-2.644.66-3.504 1.785-.793 1.124-1.058 2.578-.595 3.9l3.637 10.976c1.057 3.107 3.967 5.223 7.206 5.223h.86c.33 6.347 4.1 11.769 9.388 14.546l.727.858c2.91 3.703 2.712 8.927-.462 12.365h-9.455v-.066c-.529 0-.992.463-.992.992v20.098h-5.62c-.529 0-.991.462-.991.991 0 .53.462.992.991.992h46.281c.53 0 .992-.463.992-.992 0-.529-.463-.991-.992-.991h-5.62V57.72c0-.53-.462-.992-.991-.992h-9.455c-3.108-3.372-3.173-8.596-.198-12.034l.33-.396c6.216-2.447 10.71-8.33 11.107-15.339h.86c3.306 0 6.15-2.116 7.207-5.223l3.637-10.975c.463-1.322.198-2.711-.596-3.901-.793-1.124-2.116-1.786-3.504-1.786h-7.536V1.52c0-.529-.463-.992-.992-.992H33.422zm.992 1.983h31.074v25.454c0 8.595-6.942 15.538-15.537 15.538s-15.537-6.943-15.537-15.538V2.513zm5.552 4.628c-.528 0-.991.463-.991.992v6.611c.066.595.463.992.991.992.53 0 .992-.463.992-.992V8.133c0-.53-.463-.992-.992-.992zM24.76 9.057h7.67V26.91h-.86c-2.446.066-4.561-1.454-5.355-3.769L22.58 12.166c-.265-.728-.132-1.456.33-2.117.463-.661 1.124-.992 1.85-.992zm42.644.067h7.67c.728 0 1.455.331 1.851.992.397.661.53 1.388.33 2.115l-3.635 10.91c-.794 2.314-2.91 3.835-5.356 3.835h-.86V9.124zm-27.37 11.24c-.53 0-.992.463-.992.992v6.611c0 6.017 4.892 10.91 10.909 10.91a.974.974 0 0 0 .992-.992c0-.53-.463-.992-.992-.992-4.893 0-8.926-4.033-8.926-8.926v-6.611c0-.529-.463-.992-.991-.992zm5.156 24.463c1.52.397 3.108.661 4.76.661 1.125 0 2.249-.132 3.307-.33-2.05 3.636-1.852 8.132.396 11.57h-9.058c2.38-3.504 2.578-8.132.595-11.901zM33.554 58.711h31.074v19.174H33.554V58.71z"/>
        </g>
    </g>
</svg>
