<svg xmlns="http://www.w3.org/2000/svg" width="569" height="426" viewBox="0 0 569 426">
    <g fill="none" fill-rule="evenodd">
        <g>
            <circle cx="157.5" cy="157.5" r="157.5" fill="#5485F9"/>
            <path fill="#FFF" d="M128.716 146.4c-.288.352-.707.632-1.256.84-.55.208-1.192.312-1.928.312h-1.856V152h-2.256v-11.168h4.112c1.29 0 2.285.323 2.984.968.699.645 1.048 1.405 1.048 2.28a3.5 3.5 0 0 1-.848 2.32zm-5.04-.576h1.856c.565 0 .997-.147 1.296-.44.299-.293.448-.69.448-1.192 0-.501-.15-.899-.448-1.192-.299-.293-.73-.44-1.296-.44h-1.856v3.264zm13.936 1.744c0-.81-.235-1.448-.704-1.912-.47-.464-1.019-.696-1.648-.696-.63 0-1.176.23-1.64.688-.464.459-.696 1.093-.696 1.904 0 .81.235 1.45.704 1.92.47.47 1.016.704 1.64.704.624 0 1.17-.232 1.64-.696.47-.464.704-1.101.704-1.912zm-6.976-.016c0-1.333.395-2.424 1.184-3.272.79-.848 1.792-1.272 3.008-1.272s2.144.501 2.784 1.504v-1.376h2.24V152h-2.24v-1.488c-.672 1.077-1.605 1.616-2.8 1.616-1.195 0-2.19-.43-2.984-1.288-.795-.859-1.192-1.955-1.192-3.288zm14 4.288l-3.472-8.704h2.528l2.256 6.304 2.384-6.304h2.352l-5.536 13.056h-2.352l1.84-4.352zm9.616-8.704v1.328c.565-.97 1.483-1.456 2.752-1.456.672 0 1.272.155 1.8.464.528.31.936.752 1.224 1.328.31-.555.733-.992 1.272-1.312a3.488 3.488 0 0 1 1.816-.48c1.056 0 1.907.33 2.552.992.645.661.968 1.59.968 2.784V152h-2.24v-4.896c0-.693-.176-1.224-.528-1.592-.352-.368-.832-.552-1.44-.552s-1.09.184-1.448.552c-.357.368-.536.899-.536 1.592V152h-2.24v-4.896c0-.693-.176-1.224-.528-1.592-.352-.368-.832-.552-1.44-.552s-1.09.184-1.448.552c-.357.368-.536.899-.536 1.592V152h-2.256v-8.864h2.256zm18.448 8.992c-1.29 0-2.341-.419-3.152-1.256-.81-.837-1.216-1.944-1.216-3.32s.408-2.477 1.224-3.304c.816-.827 1.872-1.24 3.168-1.24s2.36.403 3.192 1.208c.832.805 1.248 1.88 1.248 3.224 0 .31-.021.597-.064.864h-6.464c.053.576.267 1.04.64 1.392.373.352.848.528 1.424.528.779 0 1.355-.32 1.728-.96h2.432a3.891 3.891 0 0 1-1.488 2.064c-.736.533-1.627.8-2.672.8zm1.48-6.688c-.4-.352-.883-.528-1.448-.528s-1.037.176-1.416.528c-.379.352-.605.821-.68 1.408h4.192c-.032-.587-.248-1.056-.648-1.408zm7.016-2.304v1.328c.565-.97 1.483-1.456 2.752-1.456 1.013 0 1.84.333 2.48 1 .64.667.96 1.592.96 2.776V152h-2.24v-4.896c0-.693-.176-1.224-.528-1.592-.352-.368-.832-.552-1.44-.552s-1.09.184-1.448.552c-.357.368-.536.899-.536 1.592V152h-2.256v-8.864h2.256zm11.952 6.976h1.072V152h-1.424c-.907 0-1.605-.208-2.096-.624-.49-.416-.736-1.104-.736-2.064v-4.336h-.944v-1.84h.944v-2.192h2.256v2.192h1.984v1.84h-1.984v4.336c0 .288.07.493.208.616.139.123.379.184.72.184zM132.5 160.16v4.304c.565-.97 1.483-1.456 2.752-1.456 1.013 0 1.84.333 2.48 1 .64.667.96 1.592.96 2.776V172h-2.24v-4.896c0-.693-.176-1.224-.528-1.592-.352-.368-.832-.552-1.44-.552s-1.09.184-1.448.552c-.357.368-.536.899-.536 1.592V172h-2.256v-11.84h2.256zm10.608 1.696c-.267.267-.59.4-.968.4-.379 0-.701-.133-.968-.4a1.328 1.328 0 0 1-.4-.976c0-.384.133-.71.4-.976.267-.267.59-.4.968-.4.379 0 .701.133.968.4s.4.592.4.976-.133.71-.4.976zM141.012 172v-8.864h2.256V172h-2.256zm4.16-6.272c0-.768.325-1.413.976-1.936.65-.523 1.515-.784 2.592-.784 1.077 0 1.941.259 2.592.776.65.517.997 1.219 1.04 2.104h-2.304c-.064-.747-.523-1.12-1.376-1.12-.427 0-.757.085-.992.256a.823.823 0 0 0-.352.704c0 .299.176.533.528.704.352.17.779.304 1.28.4.501.096 1 .216 1.496.36s.92.4 1.272.768.528.856.528 1.464c0 .8-.339 1.45-1.016 1.952-.677.501-1.541.752-2.592.752-1.05 0-1.912-.248-2.584-.744-.672-.496-1.04-1.208-1.104-2.136h2.304c.085.747.56 1.12 1.424 1.12.416 0 .752-.093 1.008-.28a.87.87 0 0 0 .384-.736c0-.304-.176-.544-.528-.72a4.95 4.95 0 0 0-1.28-.408c-.501-.096-1-.213-1.496-.352a2.817 2.817 0 0 1-1.272-.744c-.352-.357-.528-.824-.528-1.4zm12.64 4.384h1.072V172h-1.424c-.907 0-1.605-.208-2.096-.624-.49-.416-.736-1.104-.736-2.064v-4.336h-.944v-1.84h.944v-2.192h2.256v2.192h1.984v1.84h-1.984v4.336c0 .288.07.493.208.616.139.123.379.184.72.184zm8.392-.584c.453-.464.68-1.12.68-1.968 0-.848-.224-1.501-.672-1.96a2.187 2.187 0 0 0-1.624-.688c-.635 0-1.17.23-1.608.688-.437.459-.656 1.115-.656 1.968s.219 1.51.656 1.968c.437.459.97.688 1.6.688.63 0 1.17-.232 1.624-.696zm-6.168-1.976c0-1.365.437-2.464 1.312-3.296.875-.832 1.96-1.248 3.256-1.248 1.296 0 2.381.416 3.256 1.248.875.832 1.312 1.93 1.312 3.296 0 1.365-.44 2.47-1.32 3.312-.88.843-1.97 1.264-3.272 1.264-1.301 0-2.384-.421-3.248-1.264-.864-.843-1.296-1.947-1.296-3.312zm13.184-4.416v1.568c.597-1.13 1.461-1.696 2.592-1.696v2.304h-.56c-.672 0-1.179.168-1.52.504-.341.336-.512.915-.512 1.736V172h-2.256v-8.864h2.256zm6.576 8.704l-3.472-8.704h2.528l2.256 6.304 2.384-6.304h2.352l-5.536 13.056h-2.352l1.84-4.352z"/>
        </g>
        <g transform="translate(299 117)">
            <circle cx="135" cy="135" r="135" fill="#5485F9"/>
            <path fill="#FFF" d="M109.748 124.384c0-1.653.552-3.019 1.656-4.096 1.104-1.077 2.456-1.616 4.056-1.616 1.216 0 2.296.31 3.24.928.944.619 1.619 1.488 2.024 2.608h-2.704c-.501-.981-1.355-1.472-2.56-1.472-1.013 0-1.837.333-2.472 1s-.952 1.552-.952 2.656.317 1.99.952 2.656c.635.667 1.459 1 2.472 1 1.195 0 2.048-.49 2.56-1.472h2.704c-.405 1.12-1.08 1.987-2.024 2.6s-2.024.92-3.24.92c-1.61 0-2.965-.539-4.064-1.616-1.099-1.077-1.648-2.443-1.648-4.096zm15.184-3.248v1.568c.597-1.13 1.461-1.696 2.592-1.696v2.304h-.56c-.672 0-1.179.168-1.52.504-.341.336-.512.915-.512 1.736V130h-2.256v-8.864h2.256zm7.936 8.992c-1.29 0-2.341-.419-3.152-1.256-.81-.837-1.216-1.944-1.216-3.32s.408-2.477 1.224-3.304c.816-.827 1.872-1.24 3.168-1.24s2.36.403 3.192 1.208c.832.805 1.248 1.88 1.248 3.224 0 .31-.021.597-.064.864h-6.464c.053.576.267 1.04.64 1.392.373.352.848.528 1.424.528.779 0 1.355-.32 1.728-.96h2.432a3.891 3.891 0 0 1-1.488 2.064c-.736.533-1.627.8-2.672.8zm1.48-6.688c-.4-.352-.883-.528-1.448-.528s-1.037.176-1.416.528c-.379.352-.605.821-.68 1.408h4.192c-.032-.587-.248-1.056-.648-1.408zm11.112 2.128c0-.81-.235-1.448-.704-1.912-.47-.464-1.019-.696-1.648-.696-.63 0-1.176.23-1.64.688-.464.459-.696 1.093-.696 1.904 0 .81.235 1.45.704 1.92.47.47 1.016.704 1.64.704.624 0 1.17-.232 1.64-.696.47-.464.704-1.101.704-1.912zm-6.976-.016c0-1.333.395-2.424 1.184-3.272.79-.848 1.792-1.272 3.008-1.272s2.144.501 2.784 1.504v-4.352h2.24V130h-2.24v-1.488c-.672 1.077-1.605 1.616-2.8 1.616-1.195 0-2.19-.43-2.984-1.288-.795-.859-1.192-1.955-1.192-3.288zm13.712-5.696c-.267.267-.59.4-.968.4-.379 0-.701-.133-.968-.4a1.328 1.328 0 0 1-.4-.976c0-.384.133-.71.4-.976.267-.267.59-.4.968-.4.379 0 .701.133.968.4s.4.592.4.976-.133.71-.4.976zM150.1 130v-8.864h2.256V130H150.1zm8.096-1.888h1.072V130h-1.424c-.907 0-1.605-.208-2.096-.624-.49-.416-.736-1.104-.736-2.064v-4.336h-.944v-1.84h.944v-2.192h2.256v2.192h1.984v1.84h-1.984v4.336c0 .288.07.493.208.616.139.123.379.184.72.184zm-39.336 19.416c.453-.464.68-1.12.68-1.968 0-.848-.224-1.501-.672-1.96a2.187 2.187 0 0 0-1.624-.688c-.635 0-1.17.23-1.608.688-.437.459-.656 1.115-.656 1.968s.219 1.51.656 1.968c.437.459.97.688 1.6.688.63 0 1.17-.232 1.624-.696zm-6.168-1.976c0-1.365.437-2.464 1.312-3.296.875-.832 1.96-1.248 3.256-1.248 1.296 0 2.381.416 3.256 1.248.875.832 1.312 1.93 1.312 3.296 0 1.365-.44 2.47-1.32 3.312-.88.843-1.97 1.264-3.272 1.264-1.301 0-2.384-.421-3.248-1.264-.864-.843-1.296-1.947-1.296-3.312zm20.976-4.416h2.16l-2.72 8.864h-2.4l-1.52-5.952-1.536 5.952h-2.4l-2.72-8.864h2.272l1.632 6.736 1.632-6.736h2.368l1.6 6.72 1.632-6.72zm7.2 8.992c-1.29 0-2.341-.419-3.152-1.256-.81-.837-1.216-1.944-1.216-3.32s.408-2.477 1.224-3.304c.816-.827 1.872-1.24 3.168-1.24s2.36.403 3.192 1.208c.832.805 1.248 1.88 1.248 3.224 0 .31-.021.597-.064.864h-6.464c.053.576.267 1.04.64 1.392.373.352.848.528 1.424.528.779 0 1.355-.32 1.728-.96h2.432a3.891 3.891 0 0 1-1.488 2.064c-.736.533-1.627.8-2.672.8zm1.48-6.688c-.4-.352-.883-.528-1.448-.528s-1.037.176-1.416.528c-.379.352-.605.821-.68 1.408h4.192c-.032-.587-.248-1.056-.648-1.408zm11.112 2.128c0-.81-.235-1.448-.704-1.912-.47-.464-1.019-.696-1.648-.696-.63 0-1.176.23-1.64.688-.464.459-.696 1.093-.696 1.904 0 .81.235 1.45.704 1.92.47.47 1.016.704 1.64.704.624 0 1.17-.232 1.64-.696.47-.464.704-1.101.704-1.912zm-6.976-.016c0-1.333.395-2.424 1.184-3.272.79-.848 1.792-1.272 3.008-1.272s2.144.501 2.784 1.504v-4.352h2.24V150h-2.24v-1.488c-.672 1.077-1.605 1.616-2.8 1.616-1.195 0-2.19-.43-2.984-1.288-.795-.859-1.192-1.955-1.192-3.288z"/>
        </g>
        <path fill="#E4E4E4" fill-rule="nonzero" d="M438 116.45c-25.101 0-45.45-20.349-45.45-45.45 0-25.101 20.349-45.45 45.45-45.45 25.101 0 45.45 20.349 45.45 45.45 0 25.101-20.349 45.45-45.45 45.45zm0-.9c24.604 0 44.55-19.946 44.55-44.55 0-24.604-19.946-44.55-44.55-44.55-24.604 0-44.55 19.946-44.55 44.55 0 24.604 19.946 44.55 44.55 44.55z"/>
        <path fill="#5485F9" d="M407.656 65.298h1.274V75h-1.274l-5.124-7.7V75h-1.274v-9.702h1.274l5.124 7.7v-7.7zm6.885 9.828c-1.101 0-1.997-.364-2.688-1.092-.69-.728-1.036-1.69-1.036-2.884 0-1.195.35-2.154 1.05-2.877.7-.723 1.608-1.085 2.723-1.085 1.116 0 2.012.343 2.688 1.029.677.686 1.015 1.561 1.015 2.625 0 .27-.018.523-.056.756h-6.118c.038.765.278 1.37.721 1.813.444.443 1.01.665 1.701.665.523 0 .964-.117 1.323-.35a2.08 2.08 0 0 0 .791-.924h1.372a3.528 3.528 0 0 1-1.253 1.666c-.592.439-1.337.658-2.233.658zm1.722-6.223c-.457-.443-1.024-.665-1.7-.665-.677 0-1.24.217-1.688.651-.448.434-.695 1.029-.742 1.785h4.83c-.009-.737-.242-1.328-.7-1.771zm12.71-1.589h1.288L427.839 75h-1.316l-1.736-6.104L423.051 75h-1.33l-2.436-7.686h1.316l1.778 6.412 1.806-6.412h1.316l1.708 6.426 1.764-6.426zm7.821 6.72c-.69-.728-1.036-1.687-1.036-2.877 0-1.19.346-2.149 1.036-2.877.691-.728 1.587-1.092 2.688-1.092.924 0 1.678.215 2.261.644.584.43.992 1.04 1.225 1.834h-1.372a2.009 2.009 0 0 0-.77-1.05c-.364-.252-.812-.378-1.344-.378-.728 0-1.313.254-1.757.763-.443.509-.665 1.227-.665 2.156s.222 1.647.665 2.156c.444.509 1.03.763 1.757.763 1.092 0 1.797-.476 2.114-1.428h1.372c-.233.756-.646 1.358-1.239 1.806-.592.448-1.341.672-2.247.672-1.101 0-1.997-.364-2.688-1.092zm9.434-6.72v1.302c.457-.952 1.237-1.428 2.338-1.428v1.33h-.336c-.653 0-1.15.17-1.491.511-.34.34-.511.931-.511 1.771V75h-1.274v-7.686h1.274zm7.39 7.812c-1.102 0-1.998-.364-2.688-1.092-.691-.728-1.036-1.69-1.036-2.884 0-1.195.35-2.154 1.05-2.877.7-.723 1.607-1.085 2.723-1.085 1.115 0 2.011.343 2.688 1.029.676.686 1.015 1.561 1.015 2.625 0 .27-.019.523-.056.756h-6.118c.037.765.277 1.37.72 1.813.444.443 1.011.665 1.702.665.522 0 .963-.117 1.323-.35a2.08 2.08 0 0 0 .79-.924h1.373a3.528 3.528 0 0 1-1.253 1.666c-.593.439-1.337.658-2.233.658zm1.722-6.223c-.458-.443-1.025-.665-1.701-.665-.677 0-1.24.217-1.687.651-.448.434-.696 1.029-.742 1.785h4.83c-.01-.737-.243-1.328-.7-1.771zm9.895 2.261c0-.868-.254-1.563-.763-2.086-.508-.523-1.12-.784-1.834-.784s-1.325.252-1.834.756c-.508.504-.763 1.19-.763 2.058 0 .868.257 1.573.77 2.114.514.541 1.125.812 1.834.812.71 0 1.319-.261 1.827-.784.509-.523.763-1.218.763-2.086zm-5.446 2.835c-.7-.751-1.05-1.713-1.05-2.884 0-1.171.348-2.119 1.043-2.842.696-.723 1.57-1.085 2.625-1.085.654 0 1.225.154 1.715.462.49.308.861.71 1.113 1.204V64.64h1.288V75h-1.288v-1.568a3.053 3.053 0 0 1-1.113 1.225c-.49.313-1.061.469-1.715.469-1.045 0-1.918-.376-2.618-1.127zm9.77-7.917a.815.815 0 0 1-.609-.252.85.85 0 0 1-.245-.616c0-.243.084-.448.252-.616a.83.83 0 0 1 .609-.252.83.83 0 0 1 .609.252.838.838 0 0 1 .252.616.838.838 0 0 1-.252.616.838.838 0 0 1-.616.252zM468.915 75v-7.686h1.274V75h-1.274zm6.186-1.036h1.05V75h-1.288c-1.335 0-2.002-.658-2.002-1.974V68.35h-.994v-1.036h.994V65.41h1.288v1.904h1.988v1.036h-1.988v4.676c0 .345.07.588.21.728.14.14.387.21.742.21z" opacity=".7"/>
        <path fill="#E4E4E4" fill-rule="nonzero" d="M260.5 425.45c-37.528 0-67.95-30.422-67.95-67.95 0-37.528 30.422-67.95 67.95-67.95 37.528 0 67.95 30.422 67.95 67.95 0 37.528-30.422 67.95-67.95 67.95zm0-.9c37.03 0 67.05-30.02 67.05-67.05s-30.02-67.05-67.05-67.05-67.05 30.02-67.05 67.05 30.02 67.05 67.05 67.05z"/>
        <path fill="#5485F9" d="M228.156 343.298h1.274v8.722h3.402v.98h-4.676v-9.702zm9.518 9.828c-1.101 0-1.997-.364-2.688-1.092-.69-.728-1.036-1.69-1.036-2.884 0-1.195.35-2.154 1.05-2.877.7-.723 1.608-1.085 2.723-1.085 1.116 0 2.011.343 2.688 1.029.677.686 1.015 1.561 1.015 2.625 0 .27-.018.523-.056.756h-6.118c.038.765.278 1.37.721 1.813.444.443 1.01.665 1.701.665.523 0 .964-.117 1.323-.35a2.08 2.08 0 0 0 .791-.924h1.372a3.528 3.528 0 0 1-1.253 1.666c-.593.439-1.337.658-2.233.658zm1.722-6.223c-.457-.443-1.024-.665-1.7-.665-.678 0-1.24.217-1.688.651-.448.434-.695 1.029-.742 1.785h4.83c-.01-.737-.242-1.328-.7-1.771zm5.178-1.589v1.246c.523-.915 1.358-1.372 2.506-1.372.85 0 1.558.282 2.128.847.57.565.854 1.37.854 2.415V353h-1.26v-4.34c0-.775-.187-1.363-.56-1.764-.374-.401-.89-.602-1.547-.602-.658 0-1.176.2-1.554.602-.378.401-.567.99-.567 1.764V353H243.3v-7.686h1.274zm8.356 6.685c-.7-.751-1.05-1.713-1.05-2.884 0-1.171.347-2.119 1.043-2.842.695-.723 1.57-1.085 2.625-1.085.653 0 1.224.154 1.715.462.49.308.86.71 1.113 1.204v-1.54h1.288v7.882c0 1.055-.341 1.916-1.022 2.583-.682.667-1.545 1.001-2.59 1.001-1.046 0-1.911-.243-2.597-.728-.687-.485-1.076-1.12-1.17-1.904h1.247c.12.439.405.803.854 1.092.448.29 1.003.434 1.666.434.662 0 1.215-.217 1.659-.651.443-.434.665-1.043.665-1.827v-1.764a3.053 3.053 0 0 1-1.113 1.225c-.49.313-1.062.469-1.715.469-1.046 0-1.918-.376-2.618-1.127zm5.446-2.835c0-.868-.255-1.563-.763-2.086-.51-.523-1.12-.784-1.834-.784-.715 0-1.326.252-1.834.756-.51.504-.763 1.19-.763 2.058 0 .868.256 1.573.77 2.114.513.541 1.124.812 1.834.812.709 0 1.318-.261 1.827-.784.508-.523.763-1.218.763-2.086zm6.2 2.8h1.05V353h-1.289c-1.335 0-2.002-.658-2.002-1.974v-4.676h-.994v-1.036h.994v-1.904h1.288v1.904h1.988v1.036h-1.988v4.676c0 .345.07.588.21.728.14.14.387.21.742.21zm4.015-9.324v3.92c.523-.915 1.358-1.372 2.506-1.372.85 0 1.558.282 2.128.847.57.565.854 1.37.854 2.415V353h-1.26v-4.34c0-.775-.187-1.363-.56-1.764-.374-.401-.89-.602-1.547-.602-.658 0-1.176.2-1.554.602-.378.401-.567.99-.567 1.764V353h-1.274v-10.36h1.274zm17.446 8.659c.528-.518.791-1.234.791-2.149s-.252-1.629-.756-2.142a2.483 2.483 0 0 0-1.84-.77c-.724 0-1.328.257-1.814.77-.485.513-.728 1.23-.728 2.149 0 .92.233 1.636.7 2.149.467.513 1.06.77 1.778.77.719 0 1.342-.259 1.87-.777zm-5.649-2.135c0-1.185.369-2.144 1.106-2.877.738-.733 1.661-1.099 2.772-1.099 1.11 0 2.035.366 2.772 1.099.738.733 1.106 1.69 1.106 2.87 0 1.18-.385 2.137-1.155 2.87-.77.733-1.71 1.099-2.82 1.099-1.112 0-2.02-.364-2.724-1.092-.705-.728-1.057-1.685-1.057-2.87zm12.808-3.85v1.036h-1.61V353h-1.288v-6.65h-.994v-1.036h.994v-.644c0-.84.224-1.451.672-1.834.448-.383 1.152-.574 2.114-.574v1.036c-.56 0-.95.105-1.17.315-.219.21-.328.562-.328 1.057v.644h1.61zm-78.32 24.72c-.69-.728-1.036-1.687-1.036-2.877 0-1.19.346-2.149 1.036-2.877.691-.728 1.587-1.092 2.688-1.092.924 0 1.678.215 2.261.644.584.43.992 1.04 1.225 1.834h-1.372a2.009 2.009 0 0 0-.77-1.05c-.364-.252-.812-.378-1.344-.378-.728 0-1.313.254-1.757.763-.443.509-.665 1.227-.665 2.156s.222 1.647.665 2.156c.444.509 1.03.763 1.757.763 1.092 0 1.797-.476 2.114-1.428h1.372c-.233.756-.646 1.358-1.239 1.806-.592.448-1.341.672-2.247.672-1.101 0-1.997-.364-2.688-1.092zm9.434-6.72v1.302c.457-.952 1.237-1.428 2.338-1.428v1.33h-.336c-.653 0-1.15.17-1.491.511-.34.34-.511.931-.511 1.771v4.2h-1.274v-7.686h1.274zm7.39 7.812c-1.102 0-1.998-.364-2.688-1.092-.691-.728-1.036-1.69-1.036-2.884 0-1.195.35-2.154 1.05-2.877.7-.723 1.607-1.085 2.723-1.085 1.115 0 2.011.343 2.688 1.029.676.686 1.015 1.561 1.015 2.625 0 .27-.019.523-.056.756h-6.118c.037.765.277 1.37.72 1.813.444.443 1.011.665 1.702.665.522 0 .963-.117 1.323-.35a2.08 2.08 0 0 0 .79-.924h1.373a3.528 3.528 0 0 1-1.253 1.666c-.593.439-1.337.658-2.233.658zm1.722-6.223c-.458-.443-1.025-.665-1.701-.665-.677 0-1.24.217-1.687.651-.448.434-.696 1.029-.742 1.785h4.83c-.01-.737-.243-1.328-.7-1.771zm9.895 2.261c0-.868-.254-1.563-.763-2.086-.508-.523-1.12-.784-1.834-.784s-1.325.252-1.834.756c-.508.504-.763 1.19-.763 2.058 0 .868.257 1.573.77 2.114.514.541 1.125.812 1.834.812.71 0 1.319-.261 1.827-.784.509-.523.763-1.218.763-2.086zm-5.446 2.835c-.7-.751-1.05-1.713-1.05-2.884 0-1.171.348-2.119 1.043-2.842.696-.723 1.57-1.085 2.625-1.085.654 0 1.225.154 1.715.462.49.308.861.71 1.113 1.204v-4.214h1.288V371h-1.288v-1.568a3.053 3.053 0 0 1-1.113 1.225c-.49.313-1.061.469-1.715.469-1.045 0-1.918-.376-2.618-1.127zm9.77-7.917a.815.815 0 0 1-.609-.252.85.85 0 0 1-.245-.616c0-.243.084-.448.252-.616a.83.83 0 0 1 .609-.252.83.83 0 0 1 .609.252.838.838 0 0 1 .252.616.838.838 0 0 1-.252.616.838.838 0 0 1-.616.252zm-.644 8.918v-7.686h1.274V371h-1.274zm6.186-1.036h1.05V371h-1.288c-1.335 0-2.002-.658-2.002-1.974v-4.676h-.994v-1.036h.994v-1.904h1.288v1.904h1.988v1.036h-1.988v4.676c0 .345.07.588.21.728.14.14.387.21.742.21zm8.507-9.324v3.92c.523-.915 1.358-1.372 2.506-1.372.85 0 1.559.282 2.128.847.57.565.854 1.37.854 2.415V371h-1.26v-4.34c0-.775-.187-1.363-.56-1.764-.373-.401-.889-.602-1.547-.602-.658 0-1.176.2-1.554.602-.378.401-.567.99-.567 1.764V371h-1.274v-10.36h1.274zm8.454 1.442a.815.815 0 0 1-.61-.252.85.85 0 0 1-.244-.616c0-.243.084-.448.252-.616a.83.83 0 0 1 .609-.252.83.83 0 0 1 .609.252.838.838 0 0 1 .252.616.838.838 0 0 1-.252.616.838.838 0 0 1-.616.252zM269.5 371v-7.686h1.274V371H269.5zm3.385-5.516c0-.644.269-1.188.805-1.631.537-.443 1.232-.665 2.086-.665.854 0 1.524.217 2.01.651.485.434.75 1.029.797 1.785h-1.316c-.018-.43-.163-.775-.434-1.036-.27-.261-.646-.392-1.127-.392-.48 0-.858.114-1.134.343a1.095 1.095 0 0 0-.413.882c0 .36.157.637.47.833.312.196.69.338 1.133.427.444.089.887.191 1.33.308.444.117.822.336 1.134.658.313.322.47.78.47 1.372 0 .593-.269 1.092-.806 1.498-.536.406-1.234.609-2.093.609-.858 0-1.547-.215-2.065-.644-.518-.43-.8-1.022-.847-1.778h1.316c.019.43.17.772.455 1.029.285.257.677.385 1.176.385.5 0 .892-.107 1.176-.322.285-.215.427-.488.427-.819 0-.331-.112-.595-.336-.791a1.864 1.864 0 0 0-.84-.406 32.869 32.869 0 0 1-1.099-.266 14.226 14.226 0 0 1-1.099-.329 1.784 1.784 0 0 1-.84-.609c-.224-.29-.336-.653-.336-1.092zm10.456 4.48h1.05V371h-1.288c-1.335 0-2.002-.658-2.002-1.974v-4.676h-.994v-1.036h.994v-1.904h1.288v1.904h1.988v1.036h-1.988v4.676c0 .345.07.588.21.728.14.14.387.21.742.21zm7.887-.665c.527-.518.79-1.234.79-2.149s-.251-1.629-.755-2.142a2.483 2.483 0 0 0-1.841-.77c-.724 0-1.328.257-1.813.77-.486.513-.728 1.23-.728 2.149 0 .92.233 1.636.7 2.149.466.513 1.059.77 1.778.77.718 0 1.341-.259 1.869-.777zm-5.65-2.135c0-1.185.37-2.144 1.107-2.877.737-.733 1.661-1.099 2.772-1.099 1.11 0 2.034.366 2.772 1.099.737.733 1.106 1.69 1.106 2.87 0 1.18-.385 2.137-1.155 2.87-.77.733-1.71 1.099-2.821 1.099-1.111 0-2.019-.364-2.723-1.092-.705-.728-1.057-1.685-1.057-2.87zm10.918-3.85v1.302c.458-.952 1.237-1.428 2.338-1.428v1.33h-.336c-.653 0-1.15.17-1.49.511-.341.34-.512.931-.512 1.771v4.2h-1.274v-7.686h1.274zm6.326 7.56l-3.038-7.56h1.4l2.352 6.216 2.394-6.216h1.316l-4.634 11.284h-1.316l1.526-3.724z" opacity=".7"/>
        <g>
            <path fill="#E4E4E4" fill-rule="nonzero" d="M350 137.45c-25.101 0-45.45-20.349-45.45-45.45 0-25.101 20.349-45.45 45.45-45.45 25.101 0 45.45 20.349 45.45 45.45 0 25.101-20.349 45.45-45.45 45.45zm0-.9c24.604 0 44.55-19.946 44.55-44.55 0-24.604-19.946-44.55-44.55-44.55-24.604 0-44.55 19.946-44.55 44.55 0 24.604 19.946 44.55 44.55 44.55z"/>
            <path fill="#5485F9" d="M328.871 78.32v-1.022h6.398v1.022h-2.562V87h-1.274v-8.68h-2.562zm10.526 8.554l-3.038-7.56h1.4l2.352 6.216 2.394-6.216h1.316l-4.634 11.284h-1.316l1.526-3.724zm11.638-1.645c.509-.537.763-1.241.763-2.114 0-.873-.254-1.561-.763-2.065a2.512 2.512 0 0 0-1.834-.756c-.714 0-1.325.261-1.834.784-.508.523-.763 1.216-.763 2.079 0 .863.255 1.559.763 2.086.509.527 1.12.791 1.834.791s1.326-.268 1.834-.805zm-1.589-6.041c1.055 0 1.93.362 2.625 1.085.696.723 1.043 1.67 1.043 2.842 0 1.171-.35 2.133-1.05 2.884-.7.751-1.572 1.127-2.618 1.127-.653 0-1.225-.156-1.715-.469a3.157 3.157 0 0 1-1.127-1.225v5.208h-1.274V79.314h1.274v1.54a3.133 3.133 0 0 1 1.127-1.204c.49-.308 1.062-.462 1.715-.462zm8.776 7.938c-1.101 0-1.997-.364-2.688-1.092-.69-.728-1.036-1.69-1.036-2.884 0-1.195.35-2.154 1.05-2.877.7-.723 1.608-1.085 2.723-1.085 1.115 0 2.011.343 2.688 1.029.677.686 1.015 1.561 1.015 2.625 0 .27-.019.523-.056.756H355.8c.037.765.278 1.37.721 1.813.443.443 1.01.665 1.701.665.523 0 .964-.117 1.323-.35a2.08 2.08 0 0 0 .791-.924h1.372a3.528 3.528 0 0 1-1.253 1.666c-.593.439-1.337.658-2.233.658zm1.722-6.223c-.457-.443-1.024-.665-1.701-.665s-1.239.217-1.687.651c-.448.434-.695 1.029-.742 1.785h4.83c-.01-.737-.243-1.328-.7-1.771zm3.624.581c0-.644.268-1.188.805-1.631.536-.443 1.232-.665 2.086-.665.854 0 1.523.217 2.009.651.485.434.751 1.029.798 1.785h-1.316c-.019-.43-.164-.775-.434-1.036-.271-.261-.647-.392-1.127-.392-.481 0-.859.114-1.134.343a1.095 1.095 0 0 0-.413.882c0 .36.156.637.469.833.312.196.69.338 1.134.427.443.089.886.191 1.33.308.443.117.821.336 1.134.658.312.322.469.78.469 1.372 0 .593-.269 1.092-.805 1.498-.537.406-1.235.609-2.093.609-.859 0-1.547-.215-2.065-.644-.518-.43-.8-1.022-.847-1.778h1.316c.018.43.17.772.455 1.029.284.257.676.385 1.176.385.499 0 .891-.107 1.176-.322.284-.215.427-.488.427-.819 0-.331-.112-.595-.336-.791a1.864 1.864 0 0 0-.84-.406 32.869 32.869 0 0 1-1.1-.266 14.226 14.226 0 0 1-1.098-.329 1.784 1.784 0 0 1-.84-.609c-.224-.29-.336-.653-.336-1.092zm-37.935 21.815c.528-.518.791-1.234.791-2.149s-.251-1.629-.756-2.142a2.483 2.483 0 0 0-1.84-.77c-.724 0-1.328.257-1.814.77-.485.513-.728 1.23-.728 2.149 0 .92.234 1.636.7 2.149.467.513 1.06.77 1.778.77.72 0 1.342-.259 1.87-.777zm-5.649-2.135c0-1.185.37-2.144 1.106-2.877.738-.733 1.662-1.099 2.772-1.099 1.111 0 2.035.366 2.772 1.099.738.733 1.106 1.69 1.106 2.87 0 1.18-.384 2.137-1.155 2.87-.77.733-1.71 1.099-2.82 1.099-1.111 0-2.019-.364-2.724-1.092-.704-.728-1.057-1.685-1.057-2.87zm12.808-3.85v1.036h-1.61V105h-1.288v-6.65h-.994v-1.036h.994v-.644c0-.84.224-1.451.672-1.834.448-.383 1.153-.574 2.114-.574v1.036c-.56 0-.95.105-1.169.315-.22.21-.329.562-.329 1.057v.644h1.61zm6.771 6.72c-.69-.728-1.036-1.687-1.036-2.877 0-1.19.346-2.149 1.036-2.877.691-.728 1.587-1.092 2.688-1.092.925 0 1.678.215 2.261.644.584.43.992 1.04 1.225 1.834h-1.372a2.009 2.009 0 0 0-.77-1.05c-.364-.252-.811-.378-1.344-.378-.728 0-1.313.254-1.757.763-.443.509-.665 1.227-.665 2.156s.222 1.647.665 2.156c.444.509 1.03.763 1.757.763 1.093 0 1.797-.476 2.114-1.428h1.372c-.233.756-.646 1.358-1.239 1.806-.592.448-1.341.672-2.247.672-1.1 0-1.997-.364-2.688-1.092zm9.434-6.72v1.302c.458-.952 1.237-1.428 2.338-1.428v1.33H351c-.653 0-1.15.17-1.49.511-.342.34-.512.931-.512 1.771v4.2h-1.274v-7.686h1.274zm7.39 7.812c-1.102 0-1.997-.364-2.688-1.092-.69-.728-1.036-1.69-1.036-2.884 0-1.195.35-2.154 1.05-2.877.7-.723 1.607-1.085 2.723-1.085 1.115 0 2.011.343 2.688 1.029.677.686 1.015 1.561 1.015 2.625 0 .27-.019.523-.056.756h-6.118c.037.765.277 1.37.72 1.813.444.443 1.011.665 1.702.665.523 0 .963-.117 1.323-.35a2.08 2.08 0 0 0 .79-.924h1.373a3.528 3.528 0 0 1-1.253 1.666c-.593.439-1.337.658-2.233.658zm1.722-6.223c-.458-.443-1.024-.665-1.701-.665s-1.24.217-1.687.651c-.448.434-.695 1.029-.742 1.785h4.83c-.01-.737-.243-1.328-.7-1.771zm9.895 2.261c0-.868-.254-1.563-.763-2.086-.508-.523-1.12-.784-1.834-.784s-1.325.252-1.834.756c-.508.504-.763 1.19-.763 2.058 0 .868.257 1.573.77 2.114.514.541 1.125.812 1.834.812.71 0 1.319-.261 1.827-.784.51-.523.763-1.218.763-2.086zm-5.446 2.835c-.7-.751-1.05-1.713-1.05-2.884 0-1.171.348-2.119 1.043-2.842.696-.723 1.57-1.085 2.625-1.085.654 0 1.225.154 1.715.462.49.308.861.71 1.113 1.204V94.64h1.288V105h-1.288v-1.568a3.053 3.053 0 0 1-1.113 1.225c-.49.313-1.061.469-1.715.469-1.045 0-1.917-.376-2.618-1.127zm9.77-7.917a.815.815 0 0 1-.609-.252.85.85 0 0 1-.245-.616c0-.243.084-.448.252-.616a.83.83 0 0 1 .61-.252.83.83 0 0 1 .608.252.838.838 0 0 1 .252.616.838.838 0 0 1-.252.616.838.838 0 0 1-.616.252zm-.644 8.918v-7.686h1.274V105h-1.274zm6.186-1.036h1.05V105h-1.288c-1.335 0-2.002-.658-2.002-1.974V98.35h-.994v-1.036h.994V95.41h1.288v1.904h1.988v1.036h-1.988v4.676c0 .345.07.588.21.728.14.14.387.21.742.21z" opacity=".7"/>
        </g>
    </g>
</svg>
