<svg xmlns="http://www.w3.org/2000/svg" xmlns:xlink="http://www.w3.org/1999/xlink" width="100" height="64" viewBox="0 0 100 64">
    <defs>
        <path id="a" d="M0 0h100v80H0z"/>
    </defs>
    <g fill="none" fill-rule="evenodd" transform="translate(0 -7)">
        <mask id="b" fill="#fff">
            <use xlink:href="#a"/>
        </mask>
        <g mask="url(#b)">
            <g transform="translate(1 8)">
                <circle cx="77.235" cy="43.601" r="11.212" stroke="#464646" stroke-width="1.75"/>
                <path fill="#464646" stroke="#464646" d="M72.91 43.156h8.492c.173 0 .303.13.303.303v5.156c0 .173-.13.303-.303.303H72.91a.296.296 0 0 1-.303-.303v-5.156c0-.173.13-.303.303-.303m4.246-4.55a2.717 2.717 0 0 1 2.73 2.73v1.213h-5.46v-1.213a2.717 2.717 0 0 1 2.73-2.73m0-.606a3.336 3.336 0 0 0-3.336 3.336v1.213h-.91a.915.915 0 0 0-.91.91v5.156c0 .499.411.91.91.91h8.492c.499 0 .91-.411.91-.91v-5.156a.915.915 0 0 0-.91-.91h-.91v-1.213A3.336 3.336 0 0 0 77.156 38"/>
                <path fill="#5485F9" d="M2.491 11.212h94.676v12.457H2.491z"/>
                <path fill="#464646" fill-rule="nonzero" stroke="#464646" d="M9.966 61.664H88.82c5.232 0 9.592-4.236 9.592-9.592V9.592C98.413 4.36 94.177 0 88.82 0H9.966C4.734 0 .374 4.235.374 9.592v42.604c.124 5.232 4.36 9.468 9.592 9.468zM95.92 22.049H2.99v-8.72H95.92v8.72zM9.966 2.491H88.82c3.861 0 7.1 3.115 7.1 7.101v1.37H2.99v-1.37c0-3.986 3.114-7.1 6.976-7.1zM2.99 24.541H95.92v27.53c0 3.862-3.114 7.101-7.1 7.101H9.966c-3.862 0-7.1-3.114-7.1-7.1V24.54h.124z"/>
                <path fill="#464646" fill-rule="nonzero" stroke="#464646" d="M14.201 45.22h4.236c.747 0 1.246-.498 1.246-1.246 0-.747-.499-1.245-1.246-1.245H14.2c-.747 0-1.245.498-1.245 1.245 0 .748.498 1.246 1.245 1.246zM24.665 45.22h4.236c.747 0 1.246-.498 1.246-1.246 0-.747-.499-1.245-1.246-1.245h-4.236c-.747 0-1.245.498-1.245 1.245 0 .748.498 1.246 1.245 1.246zM35.13 45.22h4.235c.748 0 1.246-.498 1.246-1.246 0-.747-.498-1.245-1.246-1.245H35.13c-.748 0-1.246.498-1.246 1.245 0 .748.498 1.246 1.246 1.246zM45.594 45.22h4.235c.748 0 1.246-.498 1.246-1.246 0-.747-.498-1.245-1.246-1.245h-4.235c-.748 0-1.246.498-1.246 1.245 0 .748.498 1.246 1.246 1.246z"/>
            </g>
        </g>
    </g>
</svg>
