<svg xmlns="http://www.w3.org/2000/svg" xmlns:xlink="http://www.w3.org/1999/xlink" width="79" height="80" viewBox="0 0 79 80">
    <defs>
        <path id="a" d="M0 0h100v80H0z"/>
    </defs>
    <g fill="none" fill-rule="evenodd" transform="translate(-10)">
        <mask id="b" fill="#fff">
            <use xlink:href="#a"/>
        </mask>
        <g mask="url(#b)">
            <path fill="#5485F9" stroke="#464646" stroke-width="3.772" d="M58.303 11.963a11.426 11.426 0 0 0-8.074 3.319l-.897.885-.892-.885c-4.379-4.344-11.39-4.367-15.868-.187a.85.85 0 0 0-.285.184 11.258 11.258 0 0 0 .003 16.015l1.494 1.482 14.948 14.829a.857.857 0 0 0 1.201 0l14.948-14.829 1.497-1.479a11.251 11.251 0 0 0 .003-16.012 11.382 11.382 0 0 0-4.115-2.604.856.856 0 0 0-.425-.151 11.573 11.573 0 0 0-3.538-.567z"/>
            <path fill="#464646" fill-rule="nonzero" stroke="#464646" d="M18.487.372C14.357.372 11 3.737 11 7.875v42.878c0 4.138 3.358 7.504 7.487 7.504h12.816L29.231 78.49c-.112.89 1.223 1.522 1.838.87l21.124-21.103h28.33c4.129 0 7.486-3.366 7.486-7.504V7.875c0-4.138-3.357-7.503-7.487-7.503H18.487zm0 2.143h62.035c2.982 0 5.348 2.372 5.348 5.36v42.878c0 2.988-2.366 5.36-5.348 5.36H51.76a1.062 1.062 0 0 0-.769.301L31.671 75.743l1.905-18.458c.056-.594-.474-1.175-1.07-1.172H18.488c-2.981 0-5.348-2.372-5.348-5.36V7.875c0-2.988 2.367-5.36 5.348-5.36z"/>
        </g>
    </g>
</svg>
