<svg xmlns="http://www.w3.org/2000/svg" xmlns:xlink="http://www.w3.org/1999/xlink" width="68" height="80" viewBox="0 0 68 80">
    <defs>
        <path id="a" d="M0 0h100v80H0z"/>
    </defs>
    <g fill="none" fill-rule="evenodd" transform="translate(-16)">
        <mask id="b" fill="#fff">
            <use xlink:href="#a"/>
        </mask>
        <g mask="url(#b)">
            <g transform="translate(16)">
                <path fill="#5078FA" d="M57.205 74.455l4.408.042v3.37l-4.29.125zM2.234 12.751l5.8.138.017 56.887 36.624.403-.246-57.242 6.213-.066.193 64.973-48.875-.033z"/>
                <path fill="#464646" fill-rule="nonzero" d="M35.59 5.949h-2.667A6.739 6.739 0 0 0 26.256.308a6.739 6.739 0 0 0-6.666 5.64h-2.667c-2.872 0-5.23 2.052-5.23 4.719v.923H1.64c-.615 0-1.026.41-1.026 1.025v65.436c0 .616.41 1.026 1.026 1.026h49.128c.616 0 1.026-.41 1.026-1.026V12.513c0-.616-.41-1.026-1.026-1.026H40.718v-.923C40.82 8 38.462 5.95 35.59 5.95zm-21.744 4.615c0-1.436 1.436-2.667 3.18-2.667h3.59c.615 0 1.025-.41 1.025-1.025a4.596 4.596 0 0 1 4.615-4.616 4.596 4.596 0 0 1 4.616 4.616c0 .615.41 1.025 1.025 1.025h3.59c1.744 0 3.18 1.129 3.18 2.667v4.82h-24.82v-4.82zm36 66.462H2.77V13.538h4.205v56.616c0 .615.41 1.025 1.026 1.025h36.513c.615 0 1.025-.41 1.025-1.025V13.538h4.206v63.488h.102zm-6.359-63.488v55.59H9.026v-55.59h2.769v2.872c0 .616.41 1.026 1.026 1.026h26.974c.615 0 1.026-.41 1.026-1.026v-2.872h2.666z"/>
                <circle cx="26.256" cy="6.974" r="1.538" fill="#464646" fill-rule="nonzero"/>
                <path fill="#464646" fill-rule="nonzero" d="M38.564 49.744H13.95c-.616 0-1.026.41-1.026 1.025 0 .616.41 1.026 1.026 1.026h24.615c.615 0 1.026-.41 1.026-1.026 0-.615-.41-1.025-1.026-1.025zM38.564 57.949H13.95c-.616 0-1.026.41-1.026 1.025 0 .616.41 1.026 1.026 1.026h24.615c.615 0 1.026-.41 1.026-1.026 0-.615-.41-1.025-1.026-1.025zM66.256 39.692c.616 0 1.026-.41 1.026-1.025V16.513c0-.616-.41-1.026-1.026-1.026H63.59v-2.974c0-.616-.41-1.026-1.026-1.026h-6.359c-.615 0-1.026.41-1.026 1.026v21.64c0 .514.308.924.821 1.026v42.872c0 .616.41 1.026 1.026 1.026h4.718c.615 0 1.025-.41 1.025-1.026V35.18c.41-.102.82-.512.82-1.025V17.538h1.642v21.129c0 .615.41 1.025 1.025 1.025zm-5.64 33.231h-2.667V35.18h2.666v37.744zm-3.488-59.385h4.308v19.59h-4.308v-19.59zm.82 63.488v-2.052h2.667v2.052H57.95zM25.436 33.744v5.64c-1.026-.41-1.744-1.435-1.744-2.666 0-.615-.41-1.026-1.025-1.026-.616 0-1.026.41-1.026 1.026 0 2.359 1.641 4.205 3.795 4.82v.821c0 .615.41 1.026 1.026 1.026.615 0 1.025-.41 1.025-1.026v-.718c2.36-.41 4.103-2.462 4.103-4.82 0-2.36-1.744-4.41-4.103-4.821v-5.641c1.128.41 1.846 1.436 1.846 2.667 0 .615.41 1.025 1.026 1.025.615 0 1.026-.41 1.026-1.025 0-2.36-1.641-4.308-3.898-4.82v-.821c0-.616-.41-1.026-1.025-1.026-.616 0-1.026.41-1.026 1.026v.82c-2.257.41-3.898 2.36-3.898 4.718 0 2.36 1.641 4.41 3.898 4.82zm4.102 3.077c0 1.333-.82 2.358-2.05 2.769v-5.436c1.127.205 2.05 1.333 2.05 2.667zm-4.102-10.565v5.334c-1.128-.41-1.846-1.436-1.846-2.667 0-1.23.718-2.256 1.846-2.667z"/>
            </g>
        </g>
    </g>
</svg>
