<svg xmlns="http://www.w3.org/2000/svg" xmlns:xlink="http://www.w3.org/1999/xlink" width="97" height="80" viewBox="0 0 97 80">
    <defs>
        <path id="a" d="M0 0h100v80H0z"/>
    </defs>
    <g fill="none" fill-rule="evenodd" transform="translate(-2)">
        <mask id="b" fill="#fff">
            <use xlink:href="#a"/>
        </mask>
        <g mask="url(#b)">
            <path fill="#5078FA" d="M75.615 20.923h20.923v46.154c0 5.778-4.683 10.461-10.461 10.461-5.778 0-10.462-4.683-10.462-10.461V20.923z"/>
            <path fill="#464646" fill-rule="nonzero" stroke="#464646" d="M15.554 54.4h48.615c.739 0 1.231-.492 1.231-1.23 0-.74-.492-1.232-1.23-1.232H15.553c-.739 0-1.23.493-1.23 1.231 0 .739.491 1.231 1.23 1.231zM15.554 61.292h48.615c.739 0 1.231-.492 1.231-1.23 0-.739-.492-1.231-1.23-1.231H15.553c-.739 0-1.23.492-1.23 1.23 0 .739.491 1.231 1.23 1.231z"/>
            <path fill="#464646" fill-rule="nonzero" stroke="#464646" d="M3.615 1.108c-.246.246-.369.492-.369.861v61.17c0 8.984 7.385 16.369 16.37 16.369h66.338c6.4 0 11.57-5.17 11.57-11.57v-.123V20.308c0-.739-.493-1.231-1.232-1.231H76.97V2.092c0-.738-.492-1.23-1.23-1.23H4.6a.957.957 0 0 0-.985.246zm91.447 20.43v46.4a9.087 9.087 0 0 1-9.108 9.108 9.087 9.087 0 0 1-9.108-9.108v-46.4h18.216zM5.83 3.2h68.677v64.738c0 3.693 1.723 6.893 4.43 9.108H19.615c-7.63 0-13.907-6.277-13.907-13.908V3.2h.123z"/>
            <path fill="#464646" fill-rule="nonzero" stroke="#464646" stroke-width=".5" d="M39.43 29.17v8.122c-1.6-.615-2.707-2.092-2.707-3.815 0-.739-.492-1.23-1.23-1.23-.74 0-1.231.491-1.231 1.23 0 3.077 2.215 5.785 5.169 6.4v1.23c0 .74.492 1.231 1.23 1.231.739 0 1.231-.492 1.231-1.23v-1.231c3.2-.492 5.539-3.2 5.539-6.523 0-3.323-2.462-6.03-5.539-6.523v-8.123a4.098 4.098 0 0 1 2.954 3.938c0 .739.492 1.23 1.23 1.23.74 0 1.232-.491 1.232-1.23 0-3.2-2.339-5.908-5.416-6.523v-1.23c0-.74-.492-1.231-1.23-1.231-.739 0-1.231.492-1.231 1.23v1.231c-3.077.615-5.416 3.2-5.416 6.523.123 3.2 2.462 5.908 5.416 6.523zm5.662 4.184c0 1.97-1.354 3.57-3.077 3.938v-8c1.723.616 3.077 2.216 3.077 4.062zm-5.661-14.646v7.877a4.098 4.098 0 0 1-2.954-3.939c.123-1.846 1.354-3.323 2.954-3.938z"/>
        </g>
    </g>
</svg>
