<svg xmlns="http://www.w3.org/2000/svg" xmlns:xlink="http://www.w3.org/1999/xlink" width="69" height="80" viewBox="0 0 69 80">
    <defs>
        <path id="a" d="M0 0h100v80H0z"/>
    </defs>
    <g fill="none" fill-rule="evenodd" transform="translate(-15)">
        <mask id="b" fill="#fff">
            <use xlink:href="#a"/>
        </mask>
        <g mask="url(#b)">
            <g transform="translate(15)">
                <path fill="#5078FA" d="M31 46h10v9H31zM48.065 46h10v9h-10zM25 17h19v7H25z"/>
                <path fill="#464646" fill-rule="nonzero" d="M68.161 20.903l-2.58-14.71c-.13-.645-.646-1.032-1.29-1.032H39.515L35.13.774a1.247 1.247 0 0 0-1.806 0l-4.517 4.387H4.032c-.645 0-1.161.387-1.29 1.033l-2.58 14.71v57.031c0 .775.515 1.29 1.29 1.29H66.87c.774 0 1.29-.515 1.29-1.29V21.161v-.258zm-65.42 4.774h62.84v1.936H2.74v-1.936zm22.969-7.87h16.903v5.419H25.71v-5.42zM63.258 7.741l2.323 13.548v1.807H45.194V11.355c0-.387-.13-.645-.388-.903l-2.71-2.71h21.162zM34.226 3.484l3.87 3.87 4.517 4.517v3.226H25.71V11.87l8.516-8.387zM5.194 7.742h21.16l-2.838 2.71c-.258.258-.387.516-.387.903v11.742H2.742V21.29L5.194 7.742zm4.903 68.903v-29.29h12.645v29.29H10.097zm15.097 0v-30.58c0-.775-.517-1.29-1.29-1.29H8.805c-.774 0-1.29.515-1.29 1.29v30.58H2.871V30.194H65.71v46.451H25.194z"/>
                <path fill="#464646" fill-rule="nonzero" d="M41.194 44.774h-9.936c-.774 0-1.29.516-1.29 1.29v18.581c0 .774.516 1.29 1.29 1.29h9.807c.774 0 1.29-.516 1.29-1.29v-18.58c.129-.646-.516-1.29-1.161-1.29zm-1.29 2.58v6.71h-7.356v-6.71h7.355zm-7.356 16v-6.709h7.226v6.71h-7.226zM57.968 44.774H48.16c-.774 0-1.29.516-1.29 1.29v18.581c0 .774.516 1.29 1.29 1.29h9.807c.774 0 1.29-.516 1.29-1.29v-18.58c0-.646-.516-1.29-1.29-1.29zm-1.29 2.58v6.71h-7.226v-6.71h7.225zm-7.226 16v-6.709h7.225v6.71h-7.225z"/>
                <circle cx="13.452" cy="64.645" r="1.161" fill="#000" fill-rule="nonzero"/>
            </g>
        </g>
    </g>
</svg>
