<svg xmlns="http://www.w3.org/2000/svg" xmlns:xlink="http://www.w3.org/1999/xlink" width="67" height="76" viewBox="0 0 67 76">
    <defs>
        <path id="a" d="M0 0h100v80H0z"/>
    </defs>
    <g fill="none" fill-rule="evenodd" transform="translate(-17 -2)">
        <mask id="b" fill="#fff">
            <use xlink:href="#a"/>
        </mask>
        <g mask="url(#b)">
            <path fill="#5078FA" d="M20.855 3.312l7.463-.03 21.785 21.86 22.592-21.83 7.496-.03-23.218 23.45-13.401.087z"/>
            <path fill="#464646" fill-rule="nonzero" d="M75.2 67.4H57.5c-.6 0-1 .4-1 1s.4 1 1 1h17.7c.6 0 1-.4 1-1s-.4-1-1-1zM57.5 62.6h17.7c.6 0 1-.4 1-1s-.4-1-1-1H57.5c-.6 0-1 .4-1 1s.5 1 1 1zM57.5 55.7h17.7c.6 0 1-.4 1-1s-.4-1-1-1H57.5c-.6 0-1 .4-1 1s.5 1 1 1zM57.5 48.9h17.7c.6 0 1-.4 1-1s-.4-1-1-1H57.5c-.6 0-1 .4-1 1s.5 1 1 1zM57.5 42h17.7c.6 0 1-.4 1-1s-.4-1-1-1H57.5c-.6 0-1 .4-1 1s.5 1 1 1zM43.4 67.4H25.7c-.6 0-1 .4-1 1s.4 1 1 1h17.7c.6 0 1-.4 1-1s-.4-1-1-1zM43.4 40H25.7c-.6 0-1 .4-1 1v20.5c0 .6.4 1 1 1h17.7c.6 0 1-.4 1-1V41c0-.5-.4-1-1-1zm-1 20.6h-1.1c-.1-2.9-2-5.4-4.7-6.2 1.4-.7 2.4-2.2 2.4-3.9 0-2.4-2-4.4-4.4-4.4-2.4 0-4.4 2-4.4 4.4 0 1.7 1 3.2 2.4 3.9-2.7.8-4.6 3.3-4.7 6.2h-1.1V42h15.7v18.6h-.1z"/>
            <path fill="#464646" fill-rule="nonzero" d="M18.3 77.1h64.6c.6 0 1-.4 1-1V33.5c0-.6-.4-1-1-1H58.1v-5.1L81.8 3.7c.3-.3.4-.7.2-1.1-.2-.4-.5-.6-.9-.6h-8.3c-.3 0-.5.1-.7.3L50.5 23.8 29 2.3c-.2-.2-.4-.3-.7-.3H20c-.4 0-.8.2-.9.6-.1.4-.1.8.2 1.1l23.5 23.5v5.3H18.3c-.6 0-1 .4-1 1v42.6c0 .5.4 1 1 1zm63.5-2H51.4V34.5h30.4v40.6zM73.1 4h5.5l-22 22.1h-5.5L73.1 4zM27.9 4l21.2 21.2-.8.8h-3.8L22.4 4h5.5zm16.8 24.1h11.4v4.4H44.7v-4.4zm-25.4 6.4h30.2v40.6H19.3V34.5z"/>
        </g>
    </g>
</svg>
