<svg xmlns="http://www.w3.org/2000/svg" width="164" height="27" viewBox="0 0 164 27">
    <g fill="none" fill-rule="evenodd">
        <path fill="#8DC63F" d="M163.626 12.635h-2.677V17.6c0 .61.117 1.067.352 1.372.234.305.656.458 1.264.458a4.518 4.518 0 0 0 .81-.077.374.374 0 0 1 .45.357l.04 2.357a.371.371 0 0 1-.268.365c-.243.069-.526.131-.849.187a7.967 7.967 0 0 1-1.356.117c-.87 0-1.6-.109-2.191-.326-.59-.217-1.065-.53-1.42-.94a3.683 3.683 0 0 1-.77-1.461 7.088 7.088 0 0 1-.235-1.893v-5.482l-.026-3.177V6.42c0-.206.167-.373.374-.373h2.981c.26 0 .48.196.509.454l.335 2.957h2.677c.207 0 .374.167.374.373v2.43a.374.374 0 0 1-.374.374zm-17.684 4.353c.035.365.144.695.326.99.183.295.418.55.705.768.287.217.608.386.965.507.356.122.725.183 1.108.183.678 0 1.252-.126 1.721-.378.333-.178.622-.394.867-.646a.433.433 0 0 1 .615.005l1.847 1.853a.438.438 0 0 1-.006.626A6.158 6.158 0 0 1 152.475 22c-1 .478-2.16.716-3.481.716a8.325 8.325 0 0 1-2.765-.455 6.698 6.698 0 0 1-2.282-1.328 6.153 6.153 0 0 1-1.538-2.148c-.374-.85-.561-1.823-.561-2.917 0-1.058.182-2.017.548-2.877a6.5 6.5 0 0 1 1.486-2.187 6.632 6.632 0 0 1 2.217-1.393 7.598 7.598 0 0 1 2.764-.495c.956 0 1.835.161 2.635.482a5.75 5.75 0 0 1 2.06 1.393c.574.608 1.02 1.345 1.343 2.213.321.868.482 1.858.482 2.969v.52c0 .174-.009.339-.026.495h-9.415zm4.864-4.4c-.426-.486-1.065-.73-1.917-.73-.417 0-.8.066-1.147.196-.348.13-.652.308-.913.534-.26.225-.47.49-.626.794a2.326 2.326 0 0 0-.26.95h5.502c0-.677-.213-1.258-.639-1.744zM139.854 22.3h-3.608a.374.374 0 0 1-.374-.373V4.636c0-.207.167-.374.374-.374h3.608c.206 0 .373.167.373.374v17.29a.374.374 0 0 1-.373.374zm-7.144 0h-3.608a.374.374 0 0 1-.374-.373V4.636c0-.207.167-.374.374-.374h3.608c.206 0 .373.167.373.374v17.29a.374.374 0 0 1-.373.374zm-7.1 0h-2.643a.512.512 0 0 1-.487-.354l-.324-.996c-.412.41-.967.79-1.668 1.139-.592.294-1.287.473-2.083.54a6.096 6.096 0 0 1-.663.035c-.974 0-1.843-.19-2.608-.572a5.977 5.977 0 0 1-1.943-1.524 6.683 6.683 0 0 1-1.213-2.2 8.165 8.165 0 0 1-.417-2.604c0-.902.143-1.766.43-2.59a6.75 6.75 0 0 1 1.226-2.175 5.804 5.804 0 0 1 1.93-1.484c.756-.364 1.604-.547 2.543-.547 1.06 0 1.956.183 2.688.547.57.284 1.04.59 1.412.915l.348-1.175a.512.512 0 0 1 .49-.366h2.981c.207 0 .374.168.374.374v12.664a.374.374 0 0 1-.374.373zm-3.943-7.734a3.474 3.474 0 0 0-.626-1.067 3.13 3.13 0 0 0-.978-.755 2.883 2.883 0 0 0-1.304-.286c-.505 0-.948.095-1.33.286a3.05 3.05 0 0 0-.965.742c-.261.304-.457.655-.587 1.054-.13.4-.196.808-.196 1.224 0 .417.066.83.196 1.237.13.408.326.768.587 1.08.26.313.582.565.965.756.382.191.825.286 1.33.286.487 0 .921-.095 1.304-.286a3.12 3.12 0 0 0 .978-.755c.27-.313.478-.668.626-1.068a3.505 3.505 0 0 0 0-2.447zm-14.388 7.483a.374.374 0 0 1-.354.25h-3.763a.374.374 0 0 1-.356-.26l-2.473-7.811h-.053l-2.422 7.809a.374.374 0 0 1-.357.263H93.74a.374.374 0 0 1-.354-.252L89.16 9.828a.373.373 0 0 1 .353-.495h3.806c.169 0 .316.113.36.275l2.169 7.927h.078l2.244-7.93a.374.374 0 0 1 .36-.272h3.74c.166 0 .312.11.359.268l2.32 7.934H105l2.194-7.928a.374.374 0 0 1 .36-.274h3.623c.258 0 .438.253.354.496l-4.252 12.22zm-19.518.25h-2.642a.512.512 0 0 1-.487-.353l-.276-.85c-.394.355-.897.686-1.513.993-.716.356-1.584.543-2.6.565-.116.007-.232.01-.35.01-.973 0-1.842-.19-2.608-.572a5.98 5.98 0 0 1-1.942-1.524 6.69 6.69 0 0 1-1.213-2.2 8.171 8.171 0 0 1-.417-2.604c0-.902.143-1.766.43-2.59a6.75 6.75 0 0 1 1.226-2.175 5.804 5.804 0 0 1 1.93-1.484c.756-.364 1.604-.547 2.542-.547.956 0 1.765.183 2.426.547.66.365 1.173.764 1.539 1.198h.052V4.636c0-.207.167-.374.374-.374h3.529c.206 0 .374.167.374.374v17.29a.374.374 0 0 1-.374.374zm-3.942-7.732a3.474 3.474 0 0 0-.626-1.068 3.132 3.132 0 0 0-.978-.755 2.883 2.883 0 0 0-1.304-.286c-.505 0-.948.095-1.33.286a3.052 3.052 0 0 0-.965.742c-.261.304-.457.655-.587 1.054-.13.4-.196.808-.196 1.224 0 .417.066.83.196 1.237.13.408.326.768.587 1.08.26.313.582.565.964.756.383.191.826.286 1.33.286.488 0 .922-.095 1.305-.286.382-.191.708-.443.978-.755.27-.313.478-.668.626-1.068a3.505 3.505 0 0 0 0-2.447zm-10.234-5.15l-.143 3.013a.374.374 0 0 1-.408.335l-.172-.021a5.748 5.748 0 0 0-.535-.026c-.574 0-1.056.104-1.447.311a2.944 2.944 0 0 0-.94.754 2.845 2.845 0 0 0-.508.96 3.21 3.21 0 0 0-.157.91v6.274a.374.374 0 0 1-.373.373h-3.53a.374.374 0 0 1-.374-.373V9.722c0-.207.168-.374.374-.374h2.826c.229 0 .43.152.492.372l.262.918c.4-.404.942-.78 1.632-1.123.178-.088.365-.165.562-.232a3.765 3.765 0 0 1 1.546-.315c.089 0 .176.003.262.007.105-.003.21-.007.318-.007l-.049.03.031.007a.374.374 0 0 1 .331.412zm-19.521 7.571c.035.365.144.695.326.99.182.295.417.55.704.768.287.217.609.386.965.507.356.122.726.183 1.109.183.677 0 1.251-.126 1.72-.378a3.51 3.51 0 0 0 .868-.646.433.433 0 0 1 .614.005l1.848 1.853a.438.438 0 0 1-.006.626A6.154 6.154 0 0 1 60.597 22c-1 .478-2.16.716-3.482.716a8.327 8.327 0 0 1-2.764-.455 6.7 6.7 0 0 1-2.282-1.328 6.155 6.155 0 0 1-1.539-2.148c-.374-.85-.56-1.823-.56-2.917 0-1.058.182-2.017.547-2.877.365-.86.86-1.588 1.486-2.187a6.632 6.632 0 0 1 2.217-1.393 7.597 7.597 0 0 1 2.765-.495c.956 0 1.834.161 2.634.482.8.322 1.486.786 2.06 1.393.574.608 1.021 1.345 1.343 2.213.322.868.483 1.858.483 2.969v.52c0 .174-.01.339-.026.495h-9.415zm4.864-4.4c-.426-.486-1.065-.73-1.917-.73-.417 0-.8.066-1.148.196-.348.13-.651.308-.912.534a2.65 2.65 0 0 0-.626.794 2.323 2.323 0 0 0-.261.95h5.503c0-.677-.213-1.258-.64-1.744zM48.169 22.3h-3.555a.374.374 0 0 1-.374-.373v-6.71c0-.364-.03-.711-.091-1.041-.061-.33-.161-.62-.3-.872a1.565 1.565 0 0 0-.587-.6c-.252-.146-.57-.22-.952-.22s-.717.074-1.004.22a2.029 2.029 0 0 0-.717.613c-.192.26-.335.56-.43.898-.096.338-.144.69-.144 1.054v6.657a.374.374 0 0 1-.374.374h-3.555a.374.374 0 0 1-.374-.373V9.707c0-.207.167-.374.374-.374h2.846c.225 0 .424.147.49.362l.251.827c.386-.36.89-.697 1.513-1.007.682-.34 1.508-.519 2.473-.542.046-.001.091-.005.138-.005l.037.001h.04l-.003.001c.837.009 1.551.164 2.143.467.608.313 1.1.716 1.473 1.21.374.495.643 1.064.809 1.706.165.643.247 1.285.247 1.927v7.647a.374.374 0 0 1-.374.373zM26.062 26.802h-7.958a.82.82 0 0 1-.287-.053l8.83-8.815v8.284a.584.584 0 0 1-.585.584zM17.764 9.066V.781c0-.322.262-.583.585-.583h7.713c.322 0 .584.261.584.584v17.152l-8.882-8.868zm0 0zm-8.882 8.868l-8.71 8.697A.582.582 0 0 1 0 26.218V9.066L8.83.251c.017.006.035.014.052.022v17.66h.001v.001z"/>
        <path fill="#00AE4D" d="M17.764 26.727a.82.82 0 0 1-.24-.165l-8.642-8.628H8.88h.002V.274a.82.82 0 0 1 .24.164l8.642 8.628v17.661zm-9.467.075H.585a.584.584 0 0 1-.414-.171l8.711-8.697v8.284a.584.584 0 0 1-.585.584zM0 .782C0 .459.262.198.585.198h7.957A.82.82 0 0 1 8.83.25L0 9.066V.782z"/>
        <path fill="#00682C" d="M17.817 26.75a.956.956 0 0 1-.053-.023V9.066l8.882 8.868-8.829 8.815zm-.053-17.684z"/>
    </g>
</svg>
