<svg xmlns="http://www.w3.org/2000/svg" xmlns:xlink="http://www.w3.org/1999/xlink" width="92" height="80" viewBox="0 0 92 80">
    <defs>
        <path id="a" d="M0 0h100v80H0z"/>
    </defs>
    <g fill="none" fill-rule="evenodd" transform="translate(-4)">
        <mask id="b" fill="#fff">
            <use xlink:href="#a"/>
        </mask>
        <g mask="url(#b)">
            <g transform="translate(4)">
                <circle cx="30" cy="22" r="19.333" fill="#5078FA"/>
                <path fill="#464646" fill-rule="nonzero" d="M54.36 64.491c.018.79-.59 1.453-1.378 1.47a1.423 1.423 0 0 1-1.467-1.38c-.09-2.456-2.076-3.138-2.595-3.263H31.51c-.143 0-.304-.018-.43-.072a2.43 2.43 0 0 1-.357-.107c-.018 0-.018 0-.036-.018-2.935-.933-8.231-2.762-13.241-4.483-5.44-1.864-10.54-3.621-11.613-3.926-1.61-.448-2.648 1.739-2.648 1.739-.018.018-.018.054-.036.072-.751 1.344.233 2.689.573 3.12l33.872 18.86c.018.019.053.019.071.037 2.076 1.2 4.026.25 4.402.053.107-.071.215-.125.358-.179l25.14-8.319a1.55 1.55 0 0 1 .5-.09h5.602c.787 0 1.431.646 1.431 1.435s-.644 1.434-1.431 1.434H68.28l-24.872 8.23c-.77.412-3.9 1.81-7.175-.09l-.036-.018L2.111 60.009a1.543 1.543 0 0 1-.322-.251c0-.018-3.042-3.084-1.18-6.562 0-.018 2.04-4.357 5.976-3.263 1.27.358 6.352 2.097 11.773 3.962 2.97 1.022 6.03 2.08 8.571 2.94a8.215 8.215 0 0 1-.143-1.541c.054-5.2 5.207-5.792 5.207-5.792.054 0 .125-.017.18-.017H45.27c1.736-.79 10.664-4.77 15.478-5.63h.053c2.147-.377 4.814-.502 7.23-.502 2.433 0 4.562.09 5.69.161.786.054 1.395.717 1.341 1.506-.053.79-.716 1.399-1.503 1.345a79.934 79.934 0 0 0-5.511-.162c-2.255 0-4.742.126-6.746.467-.018 0-.036 0-.053.018-4.706.842-13.868 4.984-14.977 5.486a1.35 1.35 0 0 1-.698.18h-13.33c-.501.089-2.595.609-2.63 2.975 0 .556.07 1.004.196 1.381.143.394.34.717.573.95.375.395.787.61 1.055.7l.054.017c.036 0 .054.018.072.036l.035.018h17.41c.09 0 .18 0 .269.018.018 0 4.85.879 5.028 6.024l.054.018z"/>
                <path fill="#464646" fill-rule="nonzero" d="M88.41 39.928H75.94a.34.34 0 0 0-.233.09.316.316 0 0 0-.107.233v33.725c0 .09.036.18.107.233l.036.036a.383.383 0 0 0 .215.071h12.471a.34.34 0 0 0 .233-.09.341.341 0 0 0 .09-.232V40.269c0-.09-.036-.18-.09-.233a.34.34 0 0 0-.233-.09l-.017-.018zM75.94 37.06h12.472c.876 0 1.664.358 2.254.932.573.592.948 1.38.948 2.259v33.725c0 .878-.357 1.667-.93 2.259-.59.574-1.378.95-2.255.95H75.957a3.234 3.234 0 0 1-2.165-.843c-.036-.035-.072-.071-.108-.09a3.228 3.228 0 0 1-.948-2.276V40.25c0-.879.358-1.685.948-2.277a3.163 3.163 0 0 1 2.255-.95v.036zM30.132 0a21.305 21.305 0 0 1 15.12 6.275 21.39 21.39 0 0 1 6.263 15.15 21.39 21.39 0 0 1-6.263 15.15 21.305 21.305 0 0 1-15.12 6.276 21.305 21.305 0 0 1-15.12-6.275 21.39 21.39 0 0 1-6.262-15.15 21.39 21.39 0 0 1 6.262-15.15A21.305 21.305 0 0 1 30.132 0zM43.23 8.301A18.454 18.454 0 0 0 30.132 2.87c-5.117 0-9.752 2.08-13.098 5.432a18.528 18.528 0 0 0-5.421 13.124c0 5.128 2.075 9.772 5.421 13.125a18.454 18.454 0 0 0 13.098 5.432c5.118 0 9.752-2.08 13.098-5.432a18.528 18.528 0 0 0 5.422-13.125c0-5.127-2.076-9.771-5.422-13.124z"/>
                <path fill="#FFF" fill-rule="nonzero" d="M36.09 24.814c0 .789-.142 1.488-.429 2.134a4.661 4.661 0 0 1-1.18 1.631c-.502.466-1.128.825-1.844 1.094a8.876 8.876 0 0 1-2.397.52l-.287 2.94c-.018.072-.035.144-.053.197a.374.374 0 0 1-.18.144c-.089.036-.196.071-.357.09-.143.017-.34.035-.573.035-.286 0-.537-.018-.698-.036-.179-.035-.322-.071-.411-.125a.518.518 0 0 1-.197-.197.462.462 0 0 1-.018-.27l.286-2.778a9.371 9.371 0 0 1-1.109-.215 10 10 0 0 1-.948-.287 5.916 5.916 0 0 1-.734-.323 2.085 2.085 0 0 1-.465-.323c-.107-.107-.18-.269-.233-.466-.053-.197-.071-.502-.071-.914 0-.305.018-.574.035-.771.018-.197.054-.359.09-.466a.618.618 0 0 1 .179-.233.494.494 0 0 1 .232-.054c.126 0 .287.071.52.197.232.143.518.287.876.448.358.162.787.305 1.288.448.501.144 1.11.198 1.79.198 1.073 0 1.86-.198 2.38-.592.518-.394.787-.932.787-1.596 0-.43-.107-.807-.34-1.075a3.122 3.122 0 0 0-.895-.753 6.955 6.955 0 0 0-1.27-.574c-.465-.162-.949-.34-1.45-.538a17.323 17.323 0 0 1-1.449-.663 5.474 5.474 0 0 1-1.27-.95 4.009 4.009 0 0 1-.895-1.363c-.233-.538-.34-1.184-.34-1.937 0-.681.125-1.309.34-1.864a4.333 4.333 0 0 1 .984-1.47c.43-.43.949-.771 1.575-1.022.626-.27 1.342-.449 2.13-.538l.267-2.761c.018-.072.036-.144.054-.18a.519.519 0 0 1 .18-.143c.089-.036.196-.072.357-.09.143-.018.34-.036.573-.036.286 0 .518.018.697.036.18.036.34.072.43.126a.417.417 0 0 1 .197.197c.035.09.035.18.035.269l-.268 2.6c.25.035.519.09.805.143.287.072.555.143.788.233.25.09.465.18.68.269.196.09.34.18.411.269.072.072.143.161.179.233.036.072.072.18.09.287a5.232 5.232 0 0 1 .072.968c-.001.287-.001.52-.019.7-.018.179-.036.322-.071.412-.036.09-.072.161-.126.197a.25.25 0 0 1-.16.054c-.126 0-.287-.054-.52-.18a6.418 6.418 0 0 0-.84-.376 7.807 7.807 0 0 0-1.146-.377 5.132 5.132 0 0 0-1.431-.179c-.466 0-.877.054-1.217.144-.34.09-.608.215-.823.394a1.491 1.491 0 0 0-.465.592c-.09.233-.143.484-.143.753 0 .43.107.789.34 1.075.232.287.536.538.912.753.376.216.805.395 1.288.574.483.18.967.359 1.468.556.5.197.984.412 1.467.663.483.251.912.556 1.288.933.376.376.68.824.913 1.344.232.52.34 1.148.34 1.9v-.035z"/>
            </g>
        </g>
    </g>
</svg>
