<?xml version="1.0" encoding="UTF-8" standalone="no"?>
<svg width="43px" height="44px" viewBox="0 0 43 44" version="1.1" xmlns="http://www.w3.org/2000/svg" xmlns:xlink="http://www.w3.org/1999/xlink">
    <!-- Generator: Sketch 45.2 (43514) - http://www.bohemiancoding.com/sketch -->
    <title>Shape</title>
    <desc>Created with Sketch.</desc>
    <defs></defs>
    <g id="Latest" stroke="none" stroke-width="1" fill="none" fill-rule="evenodd">
        <g id="Food-2a-SNAP" transform="translate(-464.000000, -616.000000)" stroke="#5485F9" fill-rule="nonzero" fill="#5485F9">
            <path d="M469.005555,617 C466.796371,617 465,618.800355 465,621.014437 L465,643.954097 C465,646.168174 466.796371,647.968534 469.005555,647.968534 L475.862271,647.968534 L474.753591,658.793178 C474.693662,659.269176 475.408121,659.60765 475.737097,659.259139 L487.038486,647.968534 L502.194444,647.968534 C504.403628,647.968534 506.199999,646.168174 506.199999,643.954097 L506.199999,621.014437 C506.199999,618.800355 504.403628,617 502.194444,617 L469.005555,617 Z M502.194444,618.146982 C503.789404,618.146982 505.055555,619.41594 505.055555,621.014437 L505.055555,643.954097 C505.055555,645.552589 503.789404,646.821552 502.194444,646.821552 L486.806021,646.821552 C486.65492,646.815817 486.503333,646.877181 486.394736,646.982818 L476.058972,657.323607 L477.078243,647.448779 C477.108056,647.131123 476.824371,646.820176 476.506021,646.821552 L469.005555,646.821552 C467.410595,646.821552 466.144444,645.552589 466.144444,643.954097 L466.144444,621.014437 C466.144444,619.41594 467.410595,618.146982 469.005555,618.146982 L502.194444,618.146982 Z" id="Shape"></path>
        </g>
    </g>
</svg>