<svg xmlns="http://www.w3.org/2000/svg" xmlns:xlink="http://www.w3.org/1999/xlink" width="55" height="80" viewBox="0 0 55 80">
    <defs>
        <path id="a" d="M0 0h100v80H0z"/>
    </defs>
    <g fill="none" fill-rule="evenodd" transform="translate(-22)">
        <mask id="b" fill="#fff">
            <use xlink:href="#a"/>
        </mask>
        <path fill="#5078FA" d="M25 70h48v5a4 4 0 0 1-4 4H31a6 6 0 0 1-6-6v-3z" mask="url(#b)"/>
        <g mask="url(#b)">
            <g transform="translate(22)">
                <circle cx="12.5" cy="40.5" r="2.5" fill="#5078FA"/>
                <circle cx="42.5" cy="40.5" r="2.5" fill="#5078FA"/>
                <path fill="#464646" fill-rule="nonzero" d="M1.97 28.74V72.1C1.97 76.444 5.541 80 9.907 80h35.03c4.367 0 7.94-3.556 7.94-7.901V28.74c0-1.778-.596-3.457-1.588-4.939 2.084-3.753 3.275-8 3.275-12.543v-.889c0-.592-.397-.987-.992-.987h-16.97c-.198-4.84-4.168-8.79-9.13-8.79-4.962 0-8.931 3.95-9.13 8.79H1.177c-.596 0-.993.395-.993.987v.89c0 4.542 1.191 8.888 3.275 12.542a8.756 8.756 0 0 0-1.489 4.939zM27.373 2.47c3.87 0 6.947 3.06 7.145 6.814H20.23c.198-3.753 3.374-6.815 7.145-6.815zm17.565 75.555H9.909c-3.275 0-5.955-2.667-5.955-5.926v-1.383h47.038v1.383c-.099 3.259-2.778 5.926-6.053 5.926zm5.954-49.284v40H3.954v-40c0-1.087.298-2.074.794-2.963 1.786 2.568 3.97 4.84 6.45 6.617v4.938c-1.389.395-2.381 1.68-2.381 3.26 0 1.876 1.488 3.358 3.374 3.358 1.885 0 3.374-1.482 3.374-3.358 0-1.482-.992-2.766-2.382-3.26V33.58a25.76 25.76 0 0 0 13.1 3.556h2.381c4.664 0 9.03-1.185 12.802-3.358v3.457c-1.39.395-2.382 1.679-2.382 3.259 0 1.876 1.489 3.358 3.374 3.358 1.886 0 3.374-1.482 3.374-3.358 0-1.482-.992-2.766-2.382-3.26v-4.74c2.68-1.877 4.962-4.148 6.748-6.815.497.988.695 1.975.695 3.062zM12.191 39.11c.794 0 1.39.593 1.39 1.383s-.596 1.383-1.39 1.383c-.794 0-1.39-.593-1.39-1.383-.099-.79.596-1.383 1.39-1.383zM41.466 11.26v20.148c-3.672 2.37-8.138 3.655-12.802 3.655h-2.48c-4.863 0-9.329-1.383-13.1-3.852V11.26h28.382zm.992 27.852c.794 0 1.39.593 1.39 1.383s-.596 1.383-1.39 1.383c-.794 0-1.39-.593-1.39-1.383-.099-.79.596-1.383 1.39-1.383zm.992-9.086V11.259h9.23c0 7.704-3.672 14.42-9.23 18.766zM11.198 11.259v18.568a23.676 23.676 0 0 1-8.93-18.568h8.93z"/>
                <path fill="#464646" fill-rule="nonzero" d="M45.534 45.432H9.313c-.595 0-.992.395-.992.988v12.84c0 2.962 2.084 5.333 4.564 5.333h29.176c2.481 0 4.565-2.37 4.565-5.334V46.42c-.1-.592-.496-.987-1.092-.987zm-.992 1.975c-.496 3.852-3.771 6.815-7.74 6.815h-8.336v-1.975c0-.593-.397-.988-.993-.988-.595 0-.992.395-.992.988v1.975h-8.336c-3.97 0-7.244-2.963-7.74-6.815h34.137zm0 11.852c0 1.877-1.19 3.358-2.58 3.358H12.885c-1.389 0-2.58-1.481-2.58-3.358v-6.913c1.787 2.37 4.664 3.852 7.84 3.852h8.336v2.37c0 .592.397.988.992.988.596 0 .993-.396.993-.988v-2.37h8.336c3.175 0 6.053-1.58 7.84-3.852v6.913h-.1z"/>
            </g>
        </g>
    </g>
</svg>
