<?xml version="1.0" encoding="UTF-8" standalone="no"?>
<svg width="21px" height="17px" viewBox="0 0 21 17" version="1.1" xmlns="http://www.w3.org/2000/svg" xmlns:xlink="http://www.w3.org/1999/xlink">
    <!-- Generator: Sketch 45.2 (43514) - http://www.bohemiancoding.com/sketch -->
    <title>Combined Shape</title>
    <desc>Created with Sketch.</desc>
    <defs></defs>
    <g id="Latest" stroke="none" stroke-width="1" fill="none" fill-rule="evenodd">
        <g id="Food-2a-SNAP" transform="translate(-574.000000, -630.000000)" fill-rule="nonzero" fill="#C8D8FD">
            <path d="M591.22132,639.071068 L585.857359,644.435029 C585.466835,644.825553 585.466835,645.458718 585.857359,645.849242 C586.247883,646.239767 586.881048,646.239767 587.271573,645.849242 L594.34264,638.778175 C594.537902,638.582912 594.635534,638.32699 594.635534,638.071068 C594.635534,637.815145 594.537902,637.559223 594.34264,637.363961 L587.271573,630.292893 C586.881048,629.902369 586.247883,629.902369 585.857359,630.292893 C585.466835,630.683418 585.466835,631.316582 585.857359,631.707107 L591.22132,637.071068 L575.564466,637.071068 C575.012181,637.071068 574.564466,637.518783 574.564466,638.071068 C574.564466,638.623353 575.012181,639.071068 575.564466,639.071068 L591.22132,639.071068 Z" id="Combined-Shape"></path>
        </g>
    </g>
</svg>