<svg xmlns="http://www.w3.org/2000/svg" width="11" height="12" viewBox="0 0 11 12">
    <path fill="#FFF" fill-rule="nonzero" d="M9.27 1H5.39c-.23 0-.417-.223-.417-.5 0-.276.187-.5.417-.5h5.17c.11 0 .209.05.283.133a.381.381 0 0 1 .134.284v5.17c0 .23-.224.417-.5.417-.277 0-.501-.187-.501-.417V1.708L4.547 7.14c-.177.176-.478.16-.673-.035-.195-.196-.211-.497-.035-.673l5.43-5.43zM8 7.005a.5.5 0 0 1 1 0V8.7a2.298 2.298 0 0 1-2.3 2.304H2.3a2.295 2.295 0 0 1-2.3-2.3v-4.4a2.3 2.3 0 0 1 2.304-2.3H4a.5.5 0 0 1 0 1H2.304A1.3 1.3 0 0 0 1 4.304v4.4c0 .723.58 1.3 1.3 1.3h4.4c.722 0 1.3-.58 1.3-1.304V7.004z"/>
</svg>
