<svg xmlns="http://www.w3.org/2000/svg" xmlns:xlink="http://www.w3.org/1999/xlink" width="58" height="80" viewBox="0 0 58 80">
    <defs>
        <path id="a" d="M0 0h100v80H0z"/>
    </defs>
    <g fill="none" fill-rule="evenodd" transform="translate(-21)">
        <mask id="b" fill="#fff">
            <use xlink:href="#a"/>
        </mask>
        <g mask="url(#b)">
            <path fill="#5078FA" d="M39.74 65.958h19.864c.14 8.662-3.136 12.993-9.828 12.993-6.69 0-10.036-4.331-10.036-12.993z"/>
            <path fill="#464646" fill-rule="nonzero" d="M50.226 8.216c-.648 0-1.08-.432-1.08-1.08V1.08c0-.649.432-1.081 1.08-1.081.648 0 1.08.432 1.08 1.081v6.054c0 .649-.54 1.081-1.08 1.081zM59.3 10.162c-.109 0-.325 0-.433-.108-.54-.216-.756-.865-.54-1.405l2.377-5.622c.216-.54.864-.757 1.404-.54.54.216.756.864.54 1.405L60.38 9.514a1.188 1.188 0 0 1-1.08.648zM66.969 15.568c-.324 0-.54-.109-.756-.325a1.046 1.046 0 0 1 0-1.513l4.32-4.216a1.044 1.044 0 0 1 1.513 0 1.046 1.046 0 0 1 0 1.513l-4.32 4.216c-.217.216-.433.325-.757.325zM71.938 23.46c-.432 0-.864-.217-.972-.65-.216-.54 0-1.188.648-1.405l5.725-2.27c.54-.216 1.188 0 1.404.649.216.54 0 1.189-.648 1.405l-5.725 2.27h-.432zM40.612 10.162c-.432 0-.864-.216-.972-.648l-2.377-5.622c-.216-.54 0-1.19.54-1.406.54-.216 1.188 0 1.404.541l2.377 5.622c.216.54 0 1.189-.54 1.405-.108.108-.216.108-.432.108zM33.05 15.568c-.324 0-.54-.109-.756-.325l-4.32-4.216a1.046 1.046 0 0 1 0-1.513 1.044 1.044 0 0 1 1.512 0l4.32 4.216a1.046 1.046 0 0 1 0 1.513c-.216.216-.54.325-.756.325zM27.973 23.46c-.108 0-.216 0-.432-.109l-5.725-2.27c-.54-.216-.864-.865-.648-1.405.216-.54.864-.865 1.404-.649l5.725 2.27c.54.217.864.865.648 1.406-.108.432-.54.756-.972.756zM68.697 33.081c.108-10.486-8.317-19.243-18.903-19.351h-.324a19.07 19.07 0 0 0-13.287 5.405 19.123 19.123 0 0 0-5.833 13.406c-.108.54-.432 5.73 2.808 10.81 1.945 3.027 3.673 9.19 3.565 13.406v.216c.108.54.54.865 1.08.865h22.793c.54 0 .972-.433 1.08-.865h.108v-.108c0-4.216 1.728-10.054 3.673-12.973 3.564-5.081 3.348-10.27 3.24-10.81zM38.775 55.568c-.216-4-1.728-10.054-3.888-13.406-3.025-4.648-2.593-9.405-2.593-9.513v-.108c.108-4.65 1.945-8.865 5.185-12.109 3.24-3.135 7.562-4.864 12.099-4.864h.216c9.505.108 17.067 8 16.959 17.513v.108s.432 4.865-2.809 9.514c-2.16 3.135-3.78 8.865-3.996 12.973H38.775v-.108zM50.442 80h-1.837a10.146 10.146 0 0 1-10.154-10.162V65.73c0-.649.432-1.081 1.08-1.081h19.985c.648 0 1.08.432 1.08 1.08v4.109C60.488 75.459 56.059 80 50.442 80zm-9.83-13.081v3.027c0 4.432 3.564 8 7.993 8h1.837a7.979 7.979 0 0 0 7.993-8v-3.027H40.612zM60.488 62.378H37.91c-.648 0-1.08-.432-1.08-1.08 0-.65.432-1.082 1.08-1.082h22.577c.648 0 1.08.433 1.08 1.081 0 .649-.432 1.081-1.08 1.081z"/>
        </g>
    </g>
</svg>
